<svg width="106" height="61" viewBox="0 0 106 61" fill="none" xmlns="http://www.w3.org/2000/svg">
<path d="M36.4062 50.0184C36.4221 50.0188 36.4378 50.0219 36.4523 50.0276C36.4668 50.0333 36.4799 50.0415 36.4907 50.0516L36.7089 50.2601C36.5395 50.4288 36.3303 50.5638 36.0954 50.6557C35.8203 50.7561 35.5239 50.8045 35.2257 50.7979C34.9454 50.8029 34.667 50.7578 34.4077 50.6652C34.1738 50.5802 33.9637 50.4526 33.7915 50.2909C33.6158 50.1232 33.4805 49.9266 33.3935 49.7128C33.2982 49.4744 33.2511 49.2235 33.2544 48.9712C33.2505 48.7173 33.3014 48.465 33.4044 48.2273C33.4996 48.0121 33.6433 47.8156 33.827 47.6492C34.0132 47.486 34.2359 47.3578 34.4813 47.2725C34.7499 47.182 35.0358 47.137 35.3238 47.1398C35.5913 47.1341 35.8574 47.1752 36.1063 47.2606C36.3222 47.342 36.5205 47.455 36.6925 47.5947L36.5098 47.8174C36.4972 47.8331 36.4815 47.8467 36.4635 47.8577C36.4419 47.8705 36.4159 47.8764 36.3899 47.8743C36.3616 47.8726 36.3343 47.8644 36.3108 47.8506L36.2126 47.7913L36.0763 47.7155C36.0175 47.6874 35.9564 47.6628 35.8936 47.6421C35.8128 47.6169 35.7298 47.5971 35.6455 47.5828C35.5385 47.5657 35.4299 47.5578 35.3211 47.5592C35.1137 47.5569 34.9079 47.5907 34.7158 47.6587C34.5367 47.7216 34.3749 47.8169 34.2414 47.9382C34.1054 48.0673 34.0007 48.2188 33.9333 48.3836C33.8565 48.5723 33.8187 48.7712 33.8215 48.9712C33.8182 49.1744 33.8561 49.3765 33.9333 49.5683C33.9998 49.7317 34.1027 49.8823 34.2359 50.0113C34.3608 50.1316 34.5156 50.2256 34.6885 50.2861C34.8665 50.3503 35.0575 50.3825 35.2502 50.3809C35.3615 50.3824 35.4727 50.3761 35.5828 50.362C35.7626 50.3429 35.9351 50.2886 36.0872 50.2032C36.1635 50.1595 36.2356 50.1103 36.3026 50.0563C36.3306 50.0331 36.3675 50.0196 36.4062 50.0184Z" fill="#AFB1B8"/>
<path d="M42.7043 48.9708C42.7077 49.2222 42.6578 49.4719 42.5571 49.7076C42.4682 49.9213 42.3283 50.1163 42.1464 50.2796C41.9645 50.443 41.7449 50.571 41.502 50.6552C40.9682 50.8321 40.3781 50.8321 39.8443 50.6552C39.6029 50.5697 39.3847 50.4414 39.2036 50.2785C39.0218 50.1122 38.8808 49.9155 38.7891 49.7005C38.5927 49.2233 38.5927 48.7017 38.7891 48.2246C38.8822 48.0093 39.023 47.8121 39.2036 47.6441C39.3862 47.4864 39.6043 47.363 39.8443 47.2817C40.3774 47.1016 40.9688 47.1016 41.502 47.2817C41.7442 47.3671 41.9633 47.4954 42.1454 47.6583C42.3249 47.823 42.4648 48.0171 42.5571 48.2293C42.6581 48.4665 42.708 48.7179 42.7043 48.9708ZM42.1318 48.9708C42.1361 48.7697 42.101 48.5694 42.0282 48.3785C41.9671 48.215 41.8677 48.0642 41.7364 47.9355C41.6086 47.8138 41.4512 47.7183 41.2757 47.656C40.8878 47.5264 40.4584 47.5264 40.0706 47.656C39.895 47.7183 39.7376 47.8138 39.6098 47.9355C39.4767 48.0634 39.3763 48.2144 39.3154 48.3785C39.1766 48.7642 39.1766 49.1774 39.3154 49.5631C39.3769 49.727 39.4772 49.8779 39.6098 50.0061C39.7378 50.1271 39.8952 50.2217 40.0706 50.2833C40.4591 50.4095 40.8871 50.4095 41.2757 50.2833C41.451 50.2217 41.6084 50.1271 41.7364 50.0061C41.8672 49.8771 41.9664 49.7264 42.0282 49.5631C42.1013 49.3722 42.1364 49.1719 42.1318 48.9708Z" fill="#AFB1B8"/>
<path d="M47.0013 49.5917L47.0585 49.7243C47.0803 49.677 47.0994 49.6343 47.1212 49.5917C47.142 49.5471 47.1657 49.5037 47.1921 49.4614L48.5853 47.2608C48.6126 47.2229 48.6371 47.1992 48.6644 47.1921C48.7015 47.1823 48.7402 47.1783 48.7789 47.1803H49.1906V50.7595H48.7026V48.1278C48.7026 48.0946 48.7026 48.0567 48.7026 48.0165C48.6999 47.9754 48.6999 47.9343 48.7026 47.8933L47.3012 50.1247C47.2834 50.1581 47.2549 50.1864 47.2191 50.2061C47.1833 50.2258 47.1418 50.2362 47.0994 50.236H47.0203C46.9779 50.2365 46.9362 50.2263 46.9003 50.2065C46.8645 50.1867 46.8361 50.1583 46.8186 50.1247L45.3763 47.8791C45.3763 47.9217 45.3763 47.9644 45.3763 48.007C45.3763 48.0496 45.3763 48.0875 45.3763 48.1207V50.7524H44.9046V47.1803H45.3163C45.355 47.1783 45.3937 47.1823 45.4308 47.1921C45.4646 47.2067 45.4916 47.231 45.5072 47.2608L46.9304 49.4638C46.9583 49.5045 46.9821 49.5473 47.0013 49.5917Z" fill="#AFB1B8"/>
<path d="M52.2443 49.4139V50.7545H51.699V47.1802H52.915C53.1445 47.1763 53.3734 47.2027 53.5939 47.2583C53.7704 47.3018 53.934 47.3777 54.0737 47.481C54.1948 47.5778 54.2882 47.6978 54.3464 47.8316C54.4107 47.9774 54.4422 48.1326 54.4391 48.2887C54.4415 48.4455 54.4072 48.601 54.3382 48.7459C54.2726 48.883 54.1719 49.0054 54.0437 49.1036C53.9038 49.2111 53.7394 49.2918 53.5612 49.3404C53.3489 49.3994 53.1269 49.4274 52.9041 49.4233L52.2443 49.4139ZM52.2443 49.0301H52.9041C53.0474 49.0317 53.1901 49.0133 53.3267 48.9756C53.4394 48.9427 53.5432 48.8903 53.632 48.8217C53.714 48.7561 53.7774 48.6751 53.8174 48.5848C53.8621 48.4893 53.8843 48.387 53.8829 48.284C53.8892 48.1846 53.8706 48.0853 53.8282 47.9928C53.7858 47.9003 53.7207 47.817 53.6375 47.7487C53.4292 47.6074 53.1676 47.5389 52.9041 47.5568H52.2443V49.0301Z" fill="#AFB1B8"/>
<path d="M59.573 50.7594H59.1422C59.099 50.7608 59.0566 50.7491 59.0223 50.7262C58.9913 50.7039 58.967 50.6755 58.9514 50.6433L58.5806 49.7786H56.7184L56.334 50.6433C56.3198 50.6749 56.2963 50.7027 56.2658 50.7238C56.2312 50.7481 56.1876 50.7607 56.1431 50.7594H55.7123L57.3482 47.1798H57.9153L59.573 50.7594ZM56.8738 49.4304H58.4115L57.7626 47.9734C57.713 47.8638 57.6721 47.7514 57.64 47.637L57.5772 47.8242C57.5582 47.881 57.5363 47.9332 57.5173 47.9758L56.8738 49.4304Z" fill="#AFB1B8"/>
<path d="M61.9287 47.1965C61.9613 47.212 61.9893 47.2339 62.0105 47.2604L64.3962 49.9587C64.3962 49.9161 64.3962 49.8734 64.3962 49.8331C64.3962 49.7929 64.3962 49.7526 64.3962 49.7147V47.1799H64.8842V50.7594H64.6116C64.5728 50.7604 64.5344 50.7531 64.4998 50.7381C64.4661 50.721 64.4365 50.6985 64.4125 50.6718L62.0296 47.9759C62.0322 48.0169 62.0322 48.058 62.0296 48.099C62.0296 48.1393 62.0296 48.1749 62.0296 48.208V50.7594H61.5416V47.1799H61.8306C61.8643 47.1791 61.8978 47.1847 61.9287 47.1965Z" fill="#AFB1B8"/>
<path d="M68.903 49.3358V50.7572H68.3577V49.3358L66.85 47.18H67.338C67.3801 47.1779 67.4216 47.1888 67.4553 47.2108C67.4849 47.2338 67.5098 47.2611 67.5289 47.2914L68.4722 48.682C68.5104 48.7412 68.5431 48.7957 68.5704 48.8478C68.5977 48.8999 68.6195 48.9497 68.6386 48.9994L68.7094 48.8454C68.7359 48.7891 68.7669 48.7345 68.8021 48.682L69.7319 47.2819C69.7514 47.254 69.7753 47.2285 69.8028 47.2061C69.8351 47.1816 69.8771 47.1688 69.92 47.1706H70.4135L68.903 49.3358Z" fill="#AFB1B8"/>
<path d="M46.7313 41.1731C46.9685 41.1992 47.2085 41.2205 47.4511 41.2395C51.13 39.8096 54.2421 37.4693 56.3986 34.5112C58.5551 31.553 59.6602 28.1082 59.5758 24.6074L55.5215 21.0848C56.3458 24.8121 55.9602 28.6652 54.4078 32.2129C52.8554 35.7607 50.1975 38.8631 46.7313 41.1731Z" fill="#AFB1B8"/>
<path d="M45.2836 41.0093L45.3927 41.0282C49.0966 38.7264 51.9205 35.512 53.4992 31.8009C55.0779 28.0897 55.3388 24.0523 54.2483 20.2109L48.4736 15.1937C50.8093 19.3178 51.7495 23.9331 51.1847 28.5032C50.62 33.0732 48.5737 37.41 45.2836 41.0093Z" fill="#AFB1B8"/>
<path d="M64.8679 28.7435C63.8868 32.5901 61.504 36.0593 58.0735 38.6359C57.0716 39.3925 55.9909 40.0666 54.8453 40.6494C57.6388 39.936 60.2064 38.6748 62.3502 36.9629C64.4939 35.2511 66.1566 33.1344 67.2099 30.776L64.8679 28.7435Z" fill="#AFB1B8"/>
<path d="M63.949 28.1771L60.6146 25.2799C60.5508 28.583 59.47 31.811 57.4845 34.6284C55.499 37.4457 52.6813 39.7497 49.3242 41.3007H49.3406C50.0887 41.3005 50.8362 41.2617 51.579 41.1846C54.7164 40.072 57.488 38.3019 59.6464 36.0322C61.8049 33.7625 63.283 31.0639 63.949 28.1771Z" fill="#AFB1B8"/>
<path d="M45.7662 13.0779L41.7883 9.61694C38.2322 10.8109 35.1737 12.9098 33.0133 15.639C30.8529 18.3682 29.6911 21.6005 29.68 24.9129V24.9129C29.6933 28.573 31.1112 32.1247 33.7092 35.0058C36.3072 37.8869 39.937 39.933 44.024 40.82C47.6724 36.958 49.8085 32.1857 50.1218 27.1968C50.4351 22.2078 48.9094 17.2619 45.7662 13.0779Z" fill="#AFB1B8"/>
<path d="M73.14 27.6443C73.1256 23.3018 71.1338 19.1408 67.5996 16.0702C64.0655 12.9996 59.2763 11.269 54.2783 11.2565C51.9687 11.2544 49.6788 11.6247 47.5248 12.3485L71.8804 33.5096C72.7143 31.6391 73.1414 29.6503 73.14 27.6443Z" fill="#AFB1B8"/>
</svg>
