<svg width="106" height="61" viewBox="0 0 106 61" fill="none" xmlns="http://www.w3.org/2000/svg">
<path fill-rule="evenodd" clip-rule="evenodd" d="M50.1136 6.85151H49.977C49.7671 6.8388 49.5571 6.83371 49.3471 6.82863H49.3471H49.3269H48.8918C48.4946 6.82863 48.0898 6.8388 47.6876 6.85914C47.6573 6.85693 47.6269 6.85693 47.5966 6.85914C43.9522 7.06562 40.3817 7.97651 37.0805 9.54191L36.6479 9.75043V31.8916L37.6598 31.5483C38.5477 31.2431 39.4938 30.9685 40.4728 30.7142C43.1193 30.0348 45.8367 29.6737 48.568 29.6385V32.5476C48.2062 32.5502 47.8546 32.5604 47.503 32.5782H47.4195C45.3175 32.6935 43.2317 33.0137 41.1913 33.5343C38.6072 34.1813 36.1143 35.1527 33.7716 36.4256V8.02888C36.2047 6.60974 38.8253 5.54387 41.5556 4.86296C43.9527 4.24404 46.4169 3.9263 48.8918 3.91699H49.3193C49.8303 3.92971 50.3287 3.95259 50.7967 3.98819C52.0297 4.07477 53.2528 4.26962 54.4521 4.57052V7.43384C53.2874 7.1625 52.1032 6.98394 50.9105 6.89983C50.8863 6.89778 50.8621 6.89572 50.8379 6.89365C50.5911 6.8726 50.344 6.85151 50.1136 6.85151ZM55.1528 9.77838C55.7877 9.82669 56.4455 9.84958 57.1108 9.84958C59.7125 9.84007 62.3031 9.50782 64.8239 8.86039C67.4068 8.21095 69.8986 7.23877 72.2411 5.96655V33.8572C69.8067 35.2755 67.1853 36.3413 64.4546 37.0231C62.0571 37.6397 59.5931 37.9565 57.1184 37.9665C55.2433 37.9817 53.3737 37.7613 51.553 37.3105V9.23928C51.983 9.33845 52.4257 9.43 52.876 9.50628C53.6147 9.63089 54.3939 9.72243 55.1528 9.77838ZM69.3471 9.99452L68.3352 10.3353C67.4042 10.6481 66.4657 10.9278 65.5221 11.177C62.7749 11.8829 59.9514 12.2451 57.1158 12.2552C56.4556 12.2552 55.8485 12.2374 55.2616 12.1992L54.4546 12.1458V32.2348V34.9227L55.1477 34.9837C55.7903 35.0397 56.4531 35.0676 57.1209 35.0676C59.3544 35.0581 61.5781 34.7703 63.7412 34.2107C65.5223 33.7639 67.2552 33.1413 68.9145 32.3518L69.3471 32.1433V9.99452Z" fill="#AFB1B8"/>
<path d="M35.7371 46.1294C35.5917 45.9785 35.4163 45.86 35.2224 45.7816C35.0284 45.7032 34.8203 45.6666 34.6114 45.6742C34.3888 45.6712 34.1678 45.7127 33.9613 45.7963C33.7719 45.8717 33.5998 45.985 33.4553 46.1294C33.3125 46.2742 33.2013 46.4474 33.129 46.638C33.0497 46.8377 33.0101 47.0511 33.0126 47.2661V51.0601C33.0036 51.3274 33.0546 51.5934 33.1619 51.8382C33.2514 52.0326 33.3807 52.2059 33.5413 52.3468C33.693 52.4745 33.871 52.5665 34.0625 52.6163C34.2469 52.6682 34.4376 52.6947 34.6291 52.6952C34.8404 52.6973 35.0495 52.6521 35.2413 52.5629C35.4309 52.48 35.6028 52.3608 35.7473 52.212C35.8881 52.0646 36.0005 51.8922 36.0786 51.7034C36.1597 51.5121 36.201 51.3062 36.2001 51.0982V50.6736H35.2084V51.0118C35.2114 51.1273 35.1916 51.2422 35.1502 51.35C35.1179 51.4307 35.0688 51.5036 35.006 51.5636C34.9446 51.6132 34.8742 51.6504 34.7986 51.6729C34.7316 51.6952 34.6617 51.7072 34.5912 51.7085C34.5026 51.7188 34.413 51.7055 34.3312 51.6697C34.2495 51.634 34.1786 51.5772 34.1257 51.5051C34.0322 51.3526 33.9864 51.1754 33.9942 50.9965V47.4593C33.988 47.2632 34.0297 47.0685 34.1156 46.8923C34.1671 46.8122 34.2399 46.7483 34.3258 46.7078C34.4117 46.6673 34.5071 46.6519 34.6013 46.6634C34.6868 46.6603 34.7717 46.6782 34.8488 46.7154C34.9259 46.7526 34.9929 46.8081 35.044 46.877C35.155 47.0227 35.213 47.2022 35.2084 47.3856V47.7136H36.19V47.3271C36.1919 47.1001 36.1507 46.8748 36.0685 46.6634C35.9953 46.4646 35.8825 46.2829 35.7371 46.1294Z" fill="#AFB1B8"/>
<path d="M41.6289 46.0861C41.3127 45.8191 40.9136 45.6716 40.5007 45.6691C40.2987 45.6699 40.0984 45.7061 39.9087 45.7759C39.7161 45.8449 39.5384 45.9502 39.3851 46.0861C39.2208 46.2338 39.0897 46.415 39.0005 46.6176C38.9006 46.8493 38.8515 47.0999 38.8563 47.3525V50.9914C38.8495 51.2474 38.8987 51.5017 39.0005 51.7365C39.0903 51.9321 39.2215 52.1057 39.3851 52.245C39.5367 52.3858 39.7147 52.4947 39.9087 52.5654C40.0984 52.6353 40.2987 52.6714 40.5007 52.6722C40.7027 52.6719 40.9031 52.6357 41.0926 52.5654C41.29 52.4937 41.4719 52.385 41.6289 52.245C41.7871 52.1031 41.9145 51.93 42.0033 51.7365C42.1051 51.5017 42.1544 51.2474 42.1475 50.9914V47.3525C42.1524 47.0999 42.1032 46.8493 42.0033 46.6176C41.9151 46.4171 41.7878 46.2364 41.6289 46.0861ZM41.166 50.9914C41.1743 51.0884 41.1609 51.186 41.1268 51.2771C41.0926 51.3682 41.0386 51.4504 40.9687 51.5178C40.8377 51.6276 40.6725 51.6878 40.5019 51.6878C40.3313 51.6878 40.1662 51.6276 40.0352 51.5178C39.9652 51.4504 39.9112 51.3682 39.8771 51.2771C39.8429 51.186 39.8295 51.0884 39.8379 50.9914V47.3525C39.8295 47.2555 39.8429 47.1579 39.8771 47.0668C39.9112 46.9757 39.9652 46.8934 40.0352 46.8261C40.1662 46.7162 40.3313 46.6561 40.5019 46.6561C40.6725 46.6561 40.8377 46.7162 40.9687 46.8261C41.0386 46.8934 41.0926 46.9757 41.1268 47.0668C41.1609 47.1579 41.1743 47.2555 41.166 47.3525V50.9914Z" fill="#AFB1B8"/>
<path d="M49.3673 52.6164V45.7277H48.4136L47.1614 49.3742H47.1437L45.8813 45.7277H44.9377V52.6164H45.9218V48.4257H45.9395L46.9033 51.3882H47.3941L48.3655 48.4257H48.3832V52.6164H49.3673Z" fill="#AFB1B8"/>
<path d="M54.9581 46.2107C54.8065 46.0407 54.6153 45.9113 54.4015 45.8343C54.1712 45.7594 53.9302 45.7233 53.6881 45.7275H52.226V52.6163H53.2075V49.9259H53.7134C54.0197 49.9398 54.3244 49.875 54.5988 49.7377C54.822 49.6138 55.0081 49.432 55.1377 49.2113C55.2512 49.0281 55.3277 48.8241 55.3628 48.6112C55.4014 48.352 55.4192 48.09 55.4159 47.828C55.4255 47.4971 55.3932 47.1665 55.3198 46.8438C55.2543 46.6055 55.1299 46.3876 54.9581 46.2107ZM54.4521 48.3111C54.4479 48.4358 54.4168 48.5581 54.361 48.6697C54.3049 48.7756 54.2162 48.8604 54.1081 48.9112C53.9627 48.9762 53.8041 49.0059 53.6451 48.9977H53.1974V46.6557H53.7033C53.8557 46.6482 54.0075 46.6779 54.146 46.7421C54.2475 46.8004 54.3281 46.8894 54.3762 46.9964C54.4299 47.1174 54.4591 47.2479 54.4622 47.3804C54.4622 47.5253 54.4622 47.6779 54.4622 47.8381C54.4622 47.9983 54.4723 48.1636 54.4622 48.3111H54.4521Z" fill="#AFB1B8"/>
<path d="M59.6077 45.7277H58.8032L57.2854 52.6164H58.2669L58.5553 51.1364H59.8935L60.1819 52.6164H61.1635L59.6077 45.7277ZM58.702 50.1981L59.1852 47.701H59.2029L59.6836 50.1981H58.702Z" fill="#AFB1B8"/>
<path d="M65.9497 49.8777H65.932L64.4496 45.7277H63.506V52.6164H64.4875V48.474H64.5078L66.0079 52.6164H66.9312V45.7277H65.9497V49.8777Z" fill="#AFB1B8"/>
<path d="M71.9476 45.7277L71.1583 48.4664H71.1381L70.3488 45.7277H69.3091L70.6574 49.7048V52.6164H71.639V49.7048L72.9873 45.7277H71.9476Z" fill="#AFB1B8"/>
<path d="M33 54.5615H33.4731V55.8889H33.7943V54.5615H34.2649V54.2894H33V54.5615Z" fill="#AFB1B8"/>
<path d="M36.9767 54.2894L36.3569 55.8889H36.6984L36.83 55.5253H37.4675L37.6041 55.8889H37.9532L37.3182 54.2894H36.9767ZM36.9261 55.2557L37.1437 54.6632L37.3612 55.2557H36.9261Z" fill="#AFB1B8"/>
<path d="M40.9079 55.2991H41.2773V55.5051C41.1694 55.5915 41.0358 55.639 40.8978 55.6399C40.8333 55.6435 40.7689 55.6315 40.7099 55.605C40.6509 55.5784 40.5991 55.5381 40.5588 55.4873C40.474 55.3655 40.4322 55.2187 40.4399 55.0703C40.4399 54.7143 40.5942 54.5363 40.9003 54.5363C40.9809 54.5282 41.0617 54.5495 41.128 54.5961C41.1944 54.6427 41.2419 54.7117 41.2621 54.7905L41.5783 54.7295C41.51 54.4167 41.2849 54.2591 40.9003 54.2591C40.6947 54.2536 40.4947 54.3273 40.3413 54.465C40.2607 54.5446 40.1983 54.6409 40.1586 54.7472C40.1188 54.8535 40.1026 54.9672 40.1111 55.0804C40.1017 55.2993 40.1749 55.5136 40.316 55.6806C40.3943 55.7613 40.4892 55.8241 40.594 55.8645C40.6988 55.9049 40.8111 55.9219 40.9231 55.9145C41.1734 55.9215 41.4165 55.8303 41.6011 55.6602V55.0296H40.9079V55.2991Z" fill="#AFB1B8"/>
<path d="M44.9226 54.2894H44.5988V55.8889H45.7194V55.6168H44.9226V54.2894Z" fill="#AFB1B8"/>
<path d="M48.3175 54.2894H47.9937V55.8889H48.3175V54.2894Z" fill="#AFB1B8"/>
<path d="M51.6365 55.3574L50.9813 54.2894H50.6676V55.8889H50.9686V54.8438L51.6112 55.8889H51.9325V54.2894H51.6365V55.3574Z" fill="#AFB1B8"/>
<path d="M54.6368 55.1845H55.4337V54.9124H54.6368V54.5615H55.4944V54.2894H54.313V55.8889H55.5273V55.6168H54.6368V55.1845Z" fill="#AFB1B8"/>
<path d="M61.9122 54.9201H61.2823V54.2894H60.9611V55.8889H61.2823V55.1896H61.9122V55.8889H62.2335V54.2894H61.9122V54.9201Z" fill="#AFB1B8"/>
<path d="M64.9302 55.1845H65.7296V54.9124H64.9302V54.5615H65.7903V54.2894H64.6089V55.8889H65.8206V55.6168H64.9302V55.1845Z" fill="#AFB1B8"/>
<path d="M69.0233 55.1846C69.3015 55.1414 69.4432 54.9939 69.4432 54.7396C69.4513 54.6716 69.441 54.6026 69.4134 54.54C69.3858 54.4773 69.3419 54.4233 69.2863 54.3836C69.1415 54.3108 68.9799 54.2784 68.8183 54.2895H68.1404V55.889H68.4617V55.2202H68.5249C68.5934 55.216 68.6619 55.2282 68.7247 55.2558C68.7717 55.2848 68.8108 55.3249 68.8386 55.3728L69.1877 55.8814H69.5722L69.3774 55.5686C69.2913 55.4142 69.1699 55.2826 69.0233 55.1846ZM68.6994 54.9634H68.4617V54.5616H68.7146C68.8248 54.5526 68.9357 54.5656 69.041 54.5997C69.0644 54.6204 69.0828 54.6461 69.095 54.6749C69.1072 54.7037 69.1127 54.7349 69.1113 54.7661C69.1098 54.7974 69.1014 54.8279 69.0866 54.8555C69.0718 54.883 69.051 54.9069 69.0258 54.9252C68.9202 54.9576 68.8096 54.9705 68.6994 54.9634Z" fill="#AFB1B8"/>
<path d="M72.1096 55.1845H72.9064V54.9124H72.1096V54.5615H72.9697V54.2894H71.7858V55.8889H73V55.6168H72.1096V55.1845Z" fill="#AFB1B8"/>
</svg>
