<svg width="106" height="61" viewBox="0 0 106 61" fill="none" xmlns="http://www.w3.org/2000/svg">
<path fill-rule="evenodd" clip-rule="evenodd" d="M38 7.91699L45.0078 14.5511L32 14.5435V46.7307H66V34.424L73 41.0508V7.91699H38ZM65.6924 33.6453L45.8226 14.8349H65.6924V33.6453ZM59.5231 42.0225H37.3801V20.3749H38.9453V40.5567H59.5231V42.0225ZM42.6089 51.0161L41.791 52.7007L40.9731 51.0161H40.2871L41.481 53.2622V54.5708H42.1011V53.2622L43.2925 51.0161H42.6089ZM43.6367 54.5708L43.9248 53.7432H45.3018L45.5923 54.5708H46.2368L44.8916 51.0161H44.3374L42.9946 54.5708H43.6367ZM44.6133 51.7705L45.1284 53.2451H44.0981L44.6133 51.7705ZM47.8701 53.1597C47.7806 53.2964 47.7358 53.4469 47.7358 53.6113C47.7358 53.9108 47.8408 54.1541 48.0508 54.3413C48.2624 54.5269 48.5439 54.6196 48.8955 54.6196C49.2471 54.6196 49.5498 54.5244 49.8037 54.334L50.0039 54.5708H50.6924L50.1699 53.9531C50.375 53.6732 50.4775 53.3143 50.4775 52.8765H49.9624C49.9624 53.1157 49.9128 53.333 49.8135 53.5283L49.1274 52.7178L49.3691 52.542C49.54 52.4183 49.6629 52.2946 49.7378 52.1709C49.8127 52.0456 49.8501 51.9089 49.8501 51.7607C49.8501 51.5361 49.7671 51.3481 49.6011 51.1968C49.4367 51.0438 49.2251 50.9673 48.9663 50.9673C48.6798 50.9673 48.452 51.0487 48.2827 51.2114C48.1134 51.3726 48.0288 51.5923 48.0288 51.8706C48.0288 51.9845 48.0557 52.1025 48.1094 52.2246C48.1647 52.3467 48.2616 52.4948 48.3999 52.6689C48.1362 52.8577 47.9596 53.0213 47.8701 53.1597ZM49.4741 53.9458C49.3 54.0793 49.1128 54.146 48.9126 54.146C48.7352 54.146 48.5936 54.0947 48.4878 53.9922C48.382 53.8896 48.3291 53.7562 48.3291 53.5918C48.3291 53.4014 48.4268 53.2321 48.6221 53.084L48.6978 53.0303L49.4741 53.9458ZM48.8369 52.3711C48.6693 52.1644 48.5854 51.9927 48.5854 51.856C48.5854 51.7371 48.6196 51.6387 48.688 51.5605C48.7563 51.4824 48.8483 51.4434 48.9639 51.4434C49.0713 51.4434 49.16 51.4767 49.23 51.5435C49.3 51.6086 49.335 51.6875 49.335 51.7803C49.335 51.9202 49.2845 52.035 49.1836 52.1245L49.1079 52.1855L48.8369 52.3711ZM54.623 54.3022C54.8672 54.089 55.0072 53.7928 55.043 53.4136H54.4277C54.3952 53.6675 54.3179 53.849 54.1958 53.958C54.0737 54.0671 53.8914 54.1216 53.6489 54.1216C53.3836 54.1216 53.1818 54.0207 53.0435 53.8188C52.9067 53.617 52.8384 53.3241 52.8384 52.9399V52.625C52.8416 52.2458 52.9149 51.9585 53.0581 51.7632C53.203 51.5662 53.4097 51.4678 53.6782 51.4678C53.9093 51.4678 54.0843 51.5247 54.2031 51.6387C54.3236 51.751 54.3984 51.9349 54.4277 52.1904H55.043C55.0039 51.8014 54.8647 51.5003 54.6255 51.2871C54.3862 51.0739 54.0705 50.9673 53.6782 50.9673C53.3869 50.9673 53.1297 51.0365 52.9067 51.1748C52.6854 51.3132 52.5153 51.5101 52.3965 51.7656C52.2777 52.0212 52.2183 52.3166 52.2183 52.6519V52.9839C52.2231 53.311 52.2842 53.5983 52.4014 53.8457C52.5186 54.0931 52.6846 54.2843 52.8994 54.4194C53.1159 54.5529 53.3657 54.6196 53.6489 54.6196C54.0542 54.6196 54.3789 54.5138 54.623 54.3022ZM58.2534 53.8042C58.3739 53.5405 58.4341 53.2345 58.4341 52.8862V52.6885C58.4325 52.3418 58.3706 52.0382 58.2485 51.7778C58.1265 51.5158 57.9531 51.3156 57.7285 51.1772C57.5055 51.0373 57.2492 50.9673 56.9595 50.9673C56.6698 50.9673 56.4126 51.0381 56.188 51.1797C55.965 51.3197 55.7917 51.5223 55.668 51.7876C55.5459 52.0529 55.4849 52.3589 55.4849 52.7056V52.9058C55.4865 53.2459 55.5483 53.5462 55.6704 53.8066C55.7941 54.0671 55.9683 54.2681 56.1929 54.4097C56.4191 54.5496 56.6763 54.6196 56.9644 54.6196C57.2557 54.6196 57.5129 54.5496 57.7358 54.4097C57.9604 54.2681 58.133 54.0662 58.2534 53.8042ZM57.5918 51.7949C57.7415 52.0049 57.8164 52.3068 57.8164 52.7007V52.8862C57.8164 53.2866 57.7423 53.591 57.5942 53.7993C57.4478 54.0076 57.2378 54.1118 56.9644 54.1118C56.6942 54.1118 56.4826 54.0052 56.3296 53.792C56.1782 53.5788 56.1025 53.2769 56.1025 52.8862V52.6812C56.1058 52.2987 56.1823 52.0033 56.332 51.7949C56.4834 51.585 56.6925 51.48 56.9595 51.48C57.2329 51.48 57.4437 51.585 57.5918 51.7949Z" fill="#AFB1B8"/>
</svg>
