<svg width="106" height="61" viewBox="0 0 106 61" fill="none" xmlns="http://www.w3.org/2000/svg">
<path d="M53.425 28.3252C52.9819 27.7354 52.7699 27.0383 52.8203 26.3366V23.4534C52.8203 22.5696 53.0207 21.8979 53.4216 21.4384C53.8224 20.9789 54.511 20.7501 55.4871 20.7521C56.4044 20.7521 57.0555 20.9476 57.4405 21.3387C57.8605 21.8377 58.0648 22.4479 58.018 23.0633V23.7409H56.3772V23.0545C56.383 22.8299 56.3671 22.6052 56.3296 22.3829C56.306 22.2308 56.2234 22.0902 56.0952 21.984C55.9267 21.8695 55.7145 21.814 55.5007 21.8285C55.2759 21.814 55.0529 21.8726 54.8756 21.9928C54.7327 22.1105 54.6374 22.2647 54.6038 22.4327C54.5567 22.6681 54.5351 22.9067 54.5393 23.1455V26.6446C54.5134 26.9822 54.5858 27.3199 54.7499 27.6272C54.8315 27.7311 54.9448 27.8135 55.0774 27.8653C55.2099 27.917 55.3564 27.9361 55.5007 27.9205C55.7109 27.9354 55.9195 27.8785 56.0816 27.7621C56.2153 27.6475 56.3013 27.498 56.3262 27.3368C56.3645 27.1046 56.3816 26.8703 56.3772 26.6358V25.926H58.018V26.5742C58.0641 27.2158 57.8648 27.8526 57.4507 28.3868C57.0736 28.815 56.4315 29.0292 55.4871 29.0292C54.5427 29.0292 53.8292 28.8004 53.425 28.3252Z" fill="#AFB1B8"/>
<path d="M60.2569 28.3546C59.8424 27.9058 59.6352 27.2517 59.6352 26.3865V23.3537C59.6352 22.4973 59.8424 21.849 60.2569 21.4091C60.6713 20.9691 61.3644 20.7501 62.3359 20.7521C63.3007 20.7521 63.9904 20.9711 64.4048 21.4091C64.8193 21.849 65.0299 22.4973 65.0299 23.3537V26.3865C65.0299 27.2429 64.8193 27.8999 64.398 28.3516C63.9768 28.8033 63.2906 29.0292 62.3359 29.0292C61.3813 29.0292 60.6747 28.8004 60.2569 28.3546ZM63.1003 27.6272C63.2487 27.3461 63.3163 27.0382 63.2974 26.7296V23.0164C63.3164 22.7139 63.2499 22.4119 63.1037 22.1365C63.0205 22.0304 62.9043 21.9466 62.7686 21.8947C62.6328 21.8428 62.4829 21.825 62.3359 21.8432C62.1885 21.8255 62.0383 21.8435 61.9021 21.8953C61.7659 21.9471 61.6491 22.0306 61.5648 22.1365C61.4154 22.4111 61.3477 22.7135 61.3678 23.0164V26.7472C61.3471 27.0558 61.4148 27.3641 61.5648 27.6448C61.6604 27.7394 61.7785 27.8152 61.9109 27.8672C62.0433 27.9191 62.1871 27.946 62.3326 27.946C62.478 27.946 62.6218 27.9191 62.7542 27.8672C62.8866 27.8152 63.0047 27.7394 63.1003 27.6448V27.6272Z" fill="#AFB1B8"/>
<path d="M67.0035 20.8406H68.7701L70.0984 26.4362L71.4573 20.8406H73.1763L73.3496 28.9173H72.079L71.9431 23.3041L70.6318 28.9173H69.6126L68.2537 23.2835L68.128 28.9173H66.8439L67.0035 20.8406Z" fill="#AFB1B8"/>
<path d="M75.3302 20.8406H78.0819C79.6673 20.8406 80.4599 21.605 80.4599 23.134C80.4599 24.5984 79.6254 25.3296 77.9562 25.3276H77.0186V28.9173H75.32L75.3302 20.8406ZM77.6811 24.2924C77.8489 24.3108 78.0193 24.2975 78.1806 24.2534C78.3419 24.2094 78.4902 24.1356 78.6153 24.0372C78.8101 23.7645 78.896 23.4441 78.8599 23.1252C78.8688 22.8788 78.8414 22.6324 78.7783 22.392C78.7541 22.3117 78.7116 22.2363 78.6533 22.1704C78.5949 22.1044 78.522 22.0491 78.4386 22.0078C78.2028 21.9102 77.9422 21.8658 77.6811 21.8788H77.022V24.2924H77.6811Z" fill="#AFB1B8"/>
<path d="M82.9094 20.8406H84.7337L86.6055 28.9173H85.0225L84.6522 27.055H83.0249L82.6444 28.9173H81.0376L82.9094 20.8406ZM84.4687 26.1195L83.8334 22.7292L83.1982 26.1195H84.4687Z" fill="#AFB1B8"/>
<path d="M88.1173 20.8406H89.3063L91.5825 25.4479V20.8406H92.9923V28.9173H91.861L89.5713 24.1076V28.9173H88.1139L88.1173 20.8406Z" fill="#AFB1B8"/>
<path d="M96.2945 25.8378L94.4022 20.8519H95.9955L97.1506 24.0546L98.2343 20.8519H99.7936L97.9251 25.8378V28.9173H96.2945V25.8378Z" fill="#AFB1B8"/>
<path d="M56.0477 32.4486V32.8709H54.6617V36.1529H54.0807V32.8709H52.6879V32.4486H56.0477Z" fill="#AFB1B8"/>
<path d="M60.3927 36.1532H59.9442C59.8987 36.1556 59.8538 36.1431 59.8185 36.118C59.7846 36.0965 59.7587 36.0669 59.7438 36.0329L59.3429 35.1531H57.4201L57.0192 36.0329C57.0078 36.0697 56.9869 36.1038 56.958 36.1327C56.9225 36.1572 56.8778 36.1697 56.8324 36.1679H56.3839L58.0825 32.4637H58.6737L60.3927 36.1532ZM57.5797 34.7777H59.1833L58.5038 33.2703C58.4537 33.1563 58.4117 33.0397 58.3781 32.9213C58.3543 32.9916 58.3339 33.0591 58.3136 33.1178L58.2524 33.2732L57.5797 34.7777Z" fill="#AFB1B8"/>
<path d="M63.3211 35.7894C63.4275 35.7942 63.5341 35.7942 63.6404 35.7894C63.7323 35.7812 63.8232 35.7665 63.9122 35.7454C63.9954 35.7277 64.0772 35.7052 64.1568 35.6779C64.2316 35.6515 64.3063 35.6192 64.3844 35.587V34.7539H63.705C63.6882 34.7548 63.6714 34.7526 63.6556 34.7475C63.6398 34.7425 63.6254 34.7347 63.6133 34.7246C63.6021 34.7163 63.5933 34.7059 63.5874 34.6942C63.5815 34.6825 63.5787 34.6699 63.5793 34.6571V34.3726H64.8974V35.7923C64.7898 35.8587 64.6762 35.9176 64.5577 35.9683C64.4366 36.0199 64.3104 36.0621 64.1806 36.0944C64.0417 36.1297 63.8996 36.1552 63.7559 36.1707C63.5912 36.1864 63.4257 36.1943 63.26 36.1941C62.967 36.1963 62.6763 36.1494 62.4038 36.0563C62.1495 35.968 61.9184 35.8363 61.7244 35.6691C61.5353 35.5002 61.3864 35.3009 61.2862 35.0824C61.1791 34.8369 61.1261 34.5763 61.1299 34.314C61.1263 34.05 61.1781 33.7876 61.2828 33.5396C61.3805 33.3201 61.5297 33.1203 61.721 32.9529C61.9149 32.7863 62.1461 32.6555 62.4005 32.5687C62.6914 32.4742 63.0001 32.4275 63.3109 32.4308C63.4691 32.4307 63.627 32.4415 63.7831 32.4631C63.9212 32.4825 64.0567 32.514 64.1874 32.557C64.3062 32.5955 64.4201 32.6447 64.5271 32.7036C64.6312 32.7615 64.7301 32.8262 64.8227 32.8972L64.6596 33.126C64.6468 33.1469 64.6278 33.1645 64.6045 33.1768C64.5812 33.1892 64.5545 33.196 64.5271 33.1964C64.4895 33.1953 64.453 33.1852 64.4218 33.1671C64.3708 33.1436 64.3165 33.1143 64.2553 33.0791C64.1831 33.04 64.1069 33.0066 64.0277 32.9793C63.9265 32.9443 63.8219 32.9168 63.7152 32.8972C63.5729 32.8746 63.4284 32.8638 63.2837 32.8649C63.0596 32.8628 62.8371 32.8976 62.6281 32.9676C62.439 33.0331 62.2686 33.1332 62.1287 33.2609C61.9879 33.3941 61.8803 33.5509 61.8127 33.7214C61.661 34.1226 61.661 34.5551 61.8127 34.9563C61.8871 35.1305 62.0028 35.2894 62.1525 35.4227C62.2918 35.5498 62.4609 35.6498 62.6485 35.716C62.8645 35.78 63.0934 35.805 63.3211 35.7894V35.7894Z" fill="#AFB1B8"/>
<path d="M68.7362 35.7306H70.5911V36.1529H68.1689V32.4486H68.7498L68.7362 35.7306Z" fill="#AFB1B8"/>
<path d="M72.5208 36.1529H71.9398V32.4486H72.5208V36.1529Z" fill="#AFB1B8"/>
<path d="M74.6814 32.4662C74.7159 32.4832 74.746 32.5062 74.7697 32.5337L77.253 35.326C77.2497 35.2821 77.2497 35.238 77.253 35.194C77.253 35.153 77.253 35.1119 77.253 35.0738V32.434H77.7592V36.1531H77.4671C77.4238 36.1562 77.3804 36.1491 77.3414 36.1326C77.3061 36.1142 77.275 36.0903 77.2496 36.0622L74.7697 33.2728C74.7697 33.3168 74.7697 33.3579 74.7697 33.399C74.7697 33.44 74.7697 33.4781 74.7697 33.5133V36.1531H74.2839V32.4486H74.5863C74.6191 32.4487 74.6515 32.4547 74.6814 32.4662V32.4662Z" fill="#AFB1B8"/>
<path d="M82.0364 32.4486V32.8563H79.9777V34.0794H81.6457V34.4724H79.9777V35.7365H82.0364V36.1442H79.3798V32.4486H82.0364Z" fill="#AFB1B8"/>
<path d="M21.1617 9.5725L46.9568 15.8958V38.0538L21.1617 31.7334V9.5725ZM19.5073 7.68372V32.8098L48.6079 39.9455V14.8224L19.5073 7.68372Z" fill="#AFB1B8"/>
<path d="M35.1039 51.6092L6 44.4675V19.3441L35.1039 26.4829V51.6092Z" fill="#AFB1B8"/>
<path d="M19.9897 9.28798L45.4484 15.532L34.6215 24.8819L9.15941 18.6349L19.9897 9.28798ZM19.5073 7.68372L6 19.3447L35.1039 26.4832L48.6078 14.8222L19.5073 7.68372Z" fill="#AFB1B8"/>
<path d="M36.7414 50.1958L48.6078 39.9485L36.7414 37.0363V50.1958Z" fill="#AFB1B8"/>
</svg>
