<svg width="106" height="61" viewBox="0 0 106 61" fill="none" xmlns="http://www.w3.org/2000/svg">
<path d="M26.7569 45.6522C27.0006 45.9284 27.1304 46.2742 27.1236 46.6292C27.136 46.8607 27.0914 47.0919 26.993 47.3055C26.8947 47.5191 26.7451 47.7097 26.5554 47.8632C26.082 48.1906 25.4956 48.3506 24.9037 48.3139H22V42.1225H24.8442C25.4057 42.0883 25.9626 42.2337 26.42 42.5338C26.6036 42.6746 26.7491 42.8525 26.8448 43.0535C26.9406 43.2546 26.984 43.4732 26.9716 43.6923C26.9883 44.0338 26.8712 44.3696 26.6413 44.639C26.4206 44.885 26.1156 45.0555 25.7758 45.1229C26.161 45.1873 26.5087 45.3749 26.7569 45.6522V45.6522ZM23.3511 44.7176H24.5667C24.843 44.7363 25.1174 44.6633 25.3397 44.5119C25.431 44.4362 25.502 44.3422 25.5473 44.2373C25.5925 44.1324 25.6108 44.0194 25.6007 43.907C25.6093 43.795 25.5906 43.6826 25.5461 43.578C25.5015 43.4734 25.4322 43.3792 25.343 43.3021C25.1141 43.1464 24.8312 43.0723 24.5469 43.0934H23.3511V44.7176ZM25.4587 47.092C25.5562 47.0144 25.6329 46.9173 25.6828 46.8082C25.7326 46.6991 25.7543 46.5809 25.7461 46.4628C25.7535 46.3434 25.7309 46.224 25.6799 46.1139C25.6289 46.0037 25.551 45.9058 25.4521 45.8277C25.2142 45.6662 24.9217 45.5869 24.6262 45.6038H23.3511V47.3067H24.6427C24.9334 47.3221 25.2212 47.2463 25.4587 47.092V47.092Z" fill="#AFB1B8"/>
<path d="M32.5709 48.3139L30.9886 45.8942H30.394V48.3139H29.033V42.1225H31.6096C32.2591 42.081 32.9012 42.2693 33.4034 42.6488C33.7635 42.9848 33.9808 43.4276 34.0159 43.8973C34.051 44.367 33.9018 44.8328 33.595 45.2106C33.2771 45.5441 32.8428 45.7664 32.3661 45.8398L34.0508 48.3139H32.5709ZM30.394 45.0503H31.5072C32.2802 45.0503 32.6667 44.7378 32.6667 44.1127C32.6746 43.985 32.6534 43.8573 32.6045 43.7375C32.5556 43.6178 32.48 43.5086 32.3826 43.417C32.1383 43.231 31.8237 43.1408 31.5072 43.166H30.3807L30.394 45.0503Z" fill="#AFB1B8"/>
<path d="M40.0102 47.0676H37.2981L36.8191 48.3138H35.392L37.8828 42.1919H39.4255L41.9063 48.3138H40.4793L40.0102 47.0676ZM39.6468 46.13L38.6558 43.5167L37.6648 46.13H39.6468Z" fill="#AFB1B8"/>
<path d="M49.3224 48.3139H47.9713L44.9421 44.1036V48.3139H43.5943V42.1224H44.9421L47.9713 46.357V42.1224H49.3224V48.3139Z" fill="#AFB1B8"/>
<path d="M57.0326 46.8319C56.7532 47.2993 56.3276 47.6796 55.8103 47.9238C55.2222 48.1958 54.5695 48.3298 53.9109 48.314H51.506V42.1225H53.9109C54.5684 42.1068 55.2202 42.2375 55.8103 42.5036C56.3275 42.7422 56.7536 43.1187 57.0326 43.5834C57.3107 44.087 57.4556 44.6433 57.4556 45.2076C57.4556 45.7719 57.3107 46.3283 57.0326 46.8319V46.8319ZM55.4866 46.6837C55.8722 46.2723 56.0842 45.7482 56.0842 45.2061C56.0842 44.664 55.8722 44.1399 55.4866 43.7286C55.0205 43.356 54.4127 43.1669 53.7952 43.2023H52.8571V47.21H53.7952C54.4127 47.2453 55.0205 47.0562 55.4866 46.6837Z" fill="#AFB1B8"/>
<path d="M40.8558 7.68372C40.8558 7.68372 58.2945 13.7119 57.9245 22.435V37.1892C57.9245 37.1892 40.4991 31.1581 40.8624 22.435L40.8558 7.68372Z" fill="#AFB1B8"/>
<path d="M73.4603 33.7351C76.7538 31.6598 80.5633 30.3744 84.5399 29.9966V25.3779C79.9579 26.9949 76.0709 29.9268 73.4603 33.7351V33.7351Z" fill="#AFB1B8"/>
<path d="M71.4816 35.1265C74.1773 30.1566 78.8505 26.3216 84.54 24.4102V11.1017C84.54 11.1017 59.705 19.6887 60.2303 32.1109V53.1171C60.2303 53.1171 61.3369 52.733 63.0778 52.0131C63.0778 51.3417 63.0778 50.6641 63.1571 49.9836C63.6711 44.2166 66.6654 38.8726 71.4816 35.1265V35.1265Z" fill="#AFB1B8"/>
<path d="M69.1197 42.9301C69.2502 41.4732 69.5413 40.0322 69.9885 38.629C66.9896 41.8641 65.1734 45.8784 64.7956 50.1076C64.7592 50.5068 64.7394 50.9061 64.7295 51.3175C66.14 50.6974 67.7818 49.9231 69.5062 49.0127C69.0662 47.0118 68.936 44.9642 69.1197 42.9301V42.9301Z" fill="#AFB1B8"/>
<path d="M70.1075 43.0057C69.9421 44.846 70.0454 46.6983 70.4147 48.5136C77.1999 44.7963 84.8241 39.0525 84.5301 32.1109V31.506C79.6824 32.0026 75.1468 33.943 71.6204 37.029C70.7948 38.9414 70.2849 40.9557 70.1075 43.0057V43.0057Z" fill="#AFB1B8"/>
</svg>
