<svg width="106" height="61" viewBox="0 0 106 61" fill="none" xmlns="http://www.w3.org/2000/svg">
<path d="M24.1462 22.0198H24.1433C21.7453 22.0198 19.8013 23.7474 19.8013 25.8784V25.881C19.8013 28.0121 21.7453 29.7397 24.1433 29.7397H24.1462C26.5442 29.7397 28.4882 28.0121 28.4882 25.881V25.8784C28.4882 23.7474 26.5442 22.0198 24.1462 22.0198Z" fill="#2196F3"/>
<path d="M56.195 20.7863C56.1882 17.8263 54.8623 14.9892 52.5074 12.8959C50.1525 10.8027 46.9604 9.62366 43.6297 9.61694V9.61694C40.298 9.62232 37.1045 10.8007 34.7484 12.8942C32.3922 14.9876 31.0655 17.8254 31.0587 20.7863V20.7863V37.1091C31.0587 37.1091 56.1922 34.6214 56.195 20.7888V20.7863Z" fill="#2196F3"/>
<path d="M11 42.4665C11.006 44.5261 11.9291 46.4998 13.5676 47.9564C15.2061 49.413 17.4267 50.234 19.7442 50.24V50.24C22.0612 50.234 24.2814 49.4133 25.9197 47.9573C27.5581 46.5012 28.4816 44.5282 28.4884 42.469V42.469V31.1113C28.4884 31.1113 11 32.8436 11 42.4665ZM19.7442 44.5014C19.2913 44.5014 18.8486 44.3821 18.472 44.1585C18.0955 43.9349 17.802 43.6171 17.6287 43.2452C17.4554 42.8734 17.41 42.4642 17.4984 42.0695C17.5867 41.6747 17.8048 41.3121 18.125 41.0275C18.4453 40.7429 18.8533 40.5491 19.2975 40.4706C19.7416 40.3921 20.202 40.4324 20.6205 40.5864C21.0389 40.7404 21.3965 41.0012 21.6481 41.3359C21.8997 41.6705 22.034 42.064 22.034 42.4665C22.0351 42.7343 21.9767 42.9998 21.8622 43.2476C21.7476 43.4953 21.5791 43.7206 21.3664 43.9103C21.1536 44.1001 20.9008 44.2507 20.6224 44.3534C20.3441 44.4562 20.0456 44.5091 19.7442 44.5091V44.5014Z" fill="#2196F3"/>
<path d="M37.4177 43.3807H35.7302V45.1239H34.8513V40.8583H37.6286V41.5702H35.7302V42.6718H37.4177V43.3807ZM41.6423 43.0878C41.6423 43.5077 41.5681 43.8759 41.4196 44.1923C41.2712 44.5087 41.0583 44.7528 40.7809 44.9247C40.5056 45.0966 40.1891 45.1825 39.8317 45.1825C39.4782 45.1825 39.1628 45.0975 38.8854 44.9276C38.6081 44.7577 38.3932 44.5155 38.2409 44.201C38.0886 43.8846 38.0114 43.5214 38.0095 43.1112V42.9003C38.0095 42.4803 38.0847 42.1112 38.235 41.7928C38.3874 41.4725 38.6013 41.2274 38.8766 41.0575C39.154 40.8856 39.4704 40.7997 39.8259 40.7997C40.1813 40.7997 40.4968 40.8856 40.7722 41.0575C41.0495 41.2274 41.2634 41.4725 41.4138 41.7928C41.5661 42.1112 41.6423 42.4794 41.6423 42.8973V43.0878ZM40.7516 42.8944C40.7516 42.4471 40.6716 42.1073 40.5114 41.8749C40.3513 41.6425 40.1227 41.5262 39.8259 41.5262C39.5309 41.5262 39.3034 41.6415 39.1432 41.8719C38.9831 42.1005 38.902 42.4364 38.9001 42.8798V43.0878C38.9001 43.5233 38.9802 43.8612 39.1403 44.1014C39.3005 44.3417 39.5309 44.4618 39.8317 44.4618C40.1266 44.4618 40.3532 44.3466 40.5114 44.1161C40.6696 43.8837 40.7497 43.5458 40.7516 43.1024V42.8944ZM44.4929 44.0048C44.4929 43.8387 44.4343 43.7118 44.3171 43.6239C44.1999 43.5341 43.989 43.4403 43.6843 43.3427C43.3796 43.243 43.1384 43.1454 42.9606 43.0497C42.4763 42.788 42.2341 42.4354 42.2341 41.9921C42.2341 41.7616 42.2985 41.5565 42.4274 41.3768C42.5583 41.1952 42.7448 41.0536 42.987 40.952C43.2311 40.8505 43.5046 40.7997 43.8073 40.7997C44.112 40.7997 44.3835 40.8553 44.6218 40.9667C44.86 41.076 45.0446 41.2313 45.1755 41.4325C45.3083 41.6337 45.3747 41.8622 45.3747 42.118H44.4958C44.4958 41.9227 44.4343 41.7714 44.3112 41.6639C44.1882 41.5546 44.0153 41.4999 43.7927 41.4999C43.5778 41.4999 43.4108 41.5458 43.2917 41.6376C43.1725 41.7274 43.113 41.8466 43.113 41.995C43.113 42.1337 43.1823 42.2499 43.321 42.3436C43.4616 42.4374 43.6677 42.5253 43.9391 42.6073C44.4391 42.7577 44.8034 42.9442 45.0319 43.1669C45.2604 43.3895 45.3747 43.6669 45.3747 43.9989C45.3747 44.368 45.235 44.6581 44.9557 44.869C44.6765 45.078 44.3005 45.1825 43.8278 45.1825C43.4997 45.1825 43.2009 45.1229 42.9313 45.0038C42.6618 44.8827 42.4557 44.7177 42.3132 44.5087C42.1725 44.2997 42.1022 44.0575 42.1022 43.7821H42.9841C42.9841 44.2528 43.2653 44.4882 43.8278 44.4882C44.0368 44.4882 44.1999 44.4462 44.3171 44.3622C44.4343 44.2762 44.4929 44.1571 44.4929 44.0048ZM49.1833 41.5702H47.8766V45.1239H46.9977V41.5702H45.7087V40.8583H49.1833V41.5702ZM52.2536 43.2753H50.5661V44.4178H52.5466V45.1239H49.6872V40.8583H52.5407V41.5702H50.5661V42.5868H52.2536V43.2753ZM54.6413 43.5624H53.9411V45.1239H53.0622V40.8583H54.6472C55.1511 40.8583 55.5397 40.9706 55.8132 41.1952C56.0866 41.4198 56.2233 41.7372 56.2233 42.1473C56.2233 42.4384 56.1599 42.6815 56.0329 42.8768C55.9079 43.0702 55.7175 43.2245 55.4616 43.3397L56.3845 45.0829V45.1239H55.4411L54.6413 43.5624ZM53.9411 42.8505H54.6501C54.8708 42.8505 55.0417 42.7948 55.1628 42.6835C55.2839 42.5702 55.3444 42.4149 55.3444 42.2177C55.3444 42.0165 55.2868 41.8583 55.1716 41.743C55.0583 41.6278 54.8835 41.5702 54.6472 41.5702H53.9411V42.8505ZM59.2673 43.621V45.1239H58.3884V40.8583H60.0524C60.3727 40.8583 60.654 40.9169 60.8962 41.0341C61.1403 41.1512 61.3278 41.3182 61.4587 41.535C61.5895 41.7499 61.655 41.995 61.655 42.2704C61.655 42.6884 61.5114 43.0184 61.2243 43.2606C60.9391 43.5009 60.5436 43.621 60.0378 43.621H59.2673ZM59.2673 42.9091H60.0524C60.2849 42.9091 60.4616 42.8544 60.5827 42.745C60.7057 42.6356 60.7673 42.4794 60.7673 42.2762C60.7673 42.0673 60.7057 41.8983 60.5827 41.7694C60.4597 41.6405 60.2897 41.5741 60.0729 41.5702H59.2673V42.9091ZM64.8278 43.2753H63.1403V44.4178H65.1208V45.1239H62.2614V40.8583H65.1149V41.5702H63.1403V42.5868H64.8278V43.2753ZM68.9059 41.5702H67.5993V45.1239H66.7204V41.5702H65.4313V40.8583H68.9059V41.5702ZM71.9763 43.2753H70.2888V44.4178H72.2692V45.1239H69.4099V40.8583H72.2634V41.5702H70.2888V42.5868H71.9763V43.2753ZM74.364 43.5624H73.6638V45.1239H72.7849V40.8583H74.3698C74.8737 40.8583 75.2624 40.9706 75.5358 41.1952C75.8093 41.4198 75.946 41.7372 75.946 42.1473C75.946 42.4384 75.8825 42.6815 75.7556 42.8768C75.6306 43.0702 75.4401 43.2245 75.1843 43.3397L76.1071 45.0829V45.1239H75.1638L74.364 43.5624ZM73.6638 42.8505H74.3727C74.5934 42.8505 74.7643 42.7948 74.8854 42.6835C75.0065 42.5702 75.0671 42.4149 75.0671 42.2177C75.0671 42.0165 75.0095 41.8583 74.8942 41.743C74.7809 41.6278 74.6061 41.5702 74.3698 41.5702H73.6638V42.8505ZM78.8288 44.0048C78.8288 43.8387 78.7702 43.7118 78.653 43.6239C78.5358 43.5341 78.3249 43.4403 78.0202 43.3427C77.7155 43.243 77.4743 43.1454 77.2966 43.0497C76.8122 42.788 76.57 42.4354 76.57 41.9921C76.57 41.7616 76.6345 41.5565 76.7634 41.3768C76.8942 41.1952 77.0807 41.0536 77.3229 40.952C77.5671 40.8505 77.8405 40.7997 78.1432 40.7997C78.4479 40.7997 78.7194 40.8553 78.9577 40.9667C79.196 41.076 79.3806 41.2313 79.5114 41.4325C79.6442 41.6337 79.7106 41.8622 79.7106 42.118H78.8317C78.8317 41.9227 78.7702 41.7714 78.6472 41.6639C78.5241 41.5546 78.3513 41.4999 78.1286 41.4999C77.9138 41.4999 77.7468 41.5458 77.6276 41.6376C77.5085 41.7274 77.4489 41.8466 77.4489 41.995C77.4489 42.1337 77.5182 42.2499 77.6569 42.3436C77.7975 42.4374 78.0036 42.5253 78.2751 42.6073C78.7751 42.7577 79.1393 42.9442 79.3679 43.1669C79.5964 43.3895 79.7106 43.6669 79.7106 43.9989C79.7106 44.368 79.571 44.6581 79.2917 44.869C79.0124 45.078 78.6364 45.1825 78.1638 45.1825C77.8356 45.1825 77.5368 45.1229 77.2673 45.0038C76.9977 44.8827 76.7917 44.7177 76.6491 44.5087C76.5085 44.2997 76.4382 44.0575 76.4382 43.7821H77.32C77.32 44.2528 77.6013 44.4882 78.1638 44.4882C78.3727 44.4882 78.5358 44.4462 78.653 44.3622C78.7702 44.2762 78.8288 44.1571 78.8288 44.0048Z" fill="#2196F3"/>
</svg>
