<svg aria-hidden="true" style="position:absolute;width:0;height:0;overflow:hidden" xmlns="http://www.w3.org/2000/svg"><defs><symbol id="icon-antenna" viewBox="0 0 32 32"><path fill="#212121" style="fill:var(--color1, #212121)" d="m30.773 22.098-8.443-8.505.937-4.615c.242.094.499.144.758.146h.006a2.159 2.159 0 1 0-2.008-1.435l-4.96.605L8.972.161a.534.534 0 0 0-.377-.16.532.532 0 0 0-.373.155L6.709 1.66a.534.534 0 0 0 0 .754l.814.826a14.943 14.943 0 0 0 2.519 17.663.513.513 0 0 0 .146.098c-.034.18-.051.364-.052.547v6.187h-6.4a2.67 2.67 0 0 0-2.667 2.667v1.067c0 .295.239.533.533.533h24.533a.533.533 0 0 0 .533-.533v-1.067a2.67 2.67 0 0 0-2.667-2.667h-6.4v-2.742a15.09 15.09 0 0 0 3.049.32 14.854 14.854 0 0 0 7.04-1.783l.818.823a.534.534 0 0 0 .377.16.532.532 0 0 0 .373-.155l1.513-1.504a.534.534 0 0 0 0-.754zM23.28 6.233a1.066 1.066 0 1 1 .752 1.822h-.003a1.067 1.067 0 0 1-.747-1.823h-.002zm-1.256 3.505-.598 2.946-1.175-1.182 1.774-1.763zm-.605-.902-1.92 1.909-1.485-1.493 3.405-.415zM24.004 28.8a1.6 1.6 0 0 1 1.6 1.6v.533H2.137V30.4a1.6 1.6 0 0 1 1.6-1.6h20.267zm-7.467-2.133v1.067h-5.333v-1.067h5.333zM11.204 25.6v-4.053c0-1.294 1.196-2.347 2.667-2.347s2.667 1.053 2.667 2.347V25.6h-5.333zm6.4-1.696v-2.357c0-1.882-1.675-3.413-3.733-3.413a3.8 3.8 0 0 0-3.281 1.786A13.87 13.87 0 0 1 8.311 4.033l18.602 18.708a13.818 13.818 0 0 1-9.309 1.163zm11.289-.684L7.836 2.039l.755-.752 7.935 7.98c.004 0 .006.007.01.01l13.115 13.191-.757.752z"/><path fill="#2196f3" style="fill:var(--color2, #2196f3)" d="M13.876 20.267h-.005a1.6 1.6 0 1 0-.004 3.2h.005a1.6 1.6 0 1 0 .004-3.2zm.373 1.978a.534.534 0 0 1-.752-.756.534.534 0 0 1 .373-.155.532.532 0 0 1 .373.911h.005z"/></symbol><symbol id="icon-astronaut" viewBox="0 0 32 32"><path fill="#2196f3" style="fill:var(--color2, #2196f3)" d="M31.974 4.524a.534.534 0 0 0-.43-.363l-1.91-.278-.855-1.731c-.179-.365-.777-.365-.956 0l-.855 1.731-1.91.278a.535.535 0 0 0-.296.91l1.383 1.348-.326 1.903c-.034.2.048.402.212.522a.53.53 0 0 0 .562.04l1.709-.899 1.709.899a.536.536 0 0 0 .775-.563l-.326-1.903 1.383-1.348a.536.536 0 0 0 .135-.547zm-2.463 1.327a.534.534 0 0 0-.153.472l.191 1.114-1-.526a.533.533 0 0 0-.498 0l-1.001.526.191-1.114a.534.534 0 0 0-.153-.472l-.81-.789 1.119-.163a.532.532 0 0 0 .402-.292l.5-1.013.5 1.013a.535.535 0 0 0 .402.292l1.119.163-.809.789zM26.134 20.522h-1.067v1.067h1.067v-1.067zM26.134 22.656h-1.067v1.067h1.067v-1.067zM27.2 21.589h-1.067v1.067H27.2v-1.067zM25.067 21.589H24v1.067h1.067v-1.067zM22.4 26.389h-1.067v1.067H22.4v-1.067zM22.4 28.522h-1.067v1.067H22.4v-1.067zM23.467 27.456H22.4v1.067h1.067v-1.067zM21.333 27.456h-1.067v1.067h1.067v-1.067zM16 24.256h-1.067v1.067H16v-1.067zM16 26.389h-1.067v1.067H16v-1.067zM17.067 25.322H16v1.067h1.067v-1.067zM14.933 25.322h-1.067v1.067h1.067v-1.067zM5.867 6.122H4.8v1.067h1.067V6.122zM5.867 8.255H4.8v1.067h1.067V8.255z"/><path fill="#2196f3" style="fill:var(--color2, #2196f3)" d="M6.933 7.189H5.866v1.067h1.067V7.189zM4.8 7.189H3.733v1.067H4.8V7.189z"/><path fill="#212121" style="fill:var(--color1, #212121)" d="M24.715 14.159a1.775 1.775 0 0 0-1.188-.705 1.778 1.778 0 0 0-1.34.352l-1.252.96-1.898 1.417-1.358-.541c2.421-1.086 4.114-3.508 4.114-6.32 0-3.823-3.123-6.933-6.961-6.933s-6.961 3.11-6.961 6.933a6.86 6.86 0 0 0 1.12 3.758l-2.764-.024h-.005c-.009 0-.015.004-.023.005a.515.515 0 0 0-.155.031l-.038.013c-.006.003-.013.003-.019.006l-3.233 1.596-.001.001-1.893.911a.397.397 0 0 0-.063.035 1.779 1.779 0 0 0-.598 2.295c.22.429.595.745 1.056.889a1.776 1.776 0 0 0 1.378-.128l1.388-.738 2.264-1.169 1.357-.008L2.2 22.211l-.002.001-1.339 1.333c-.316.315-.49.732-.49 1.178s.174.863.49 1.179c.325.323.752.485 1.179.485s.854-.162 1.18-.485l1.314-1.309 1.741-1.3.901.897-1.762 1.754-.002.001-1.339 1.333c-.316.315-.49.732-.49 1.178s.174.863.49 1.179c.325.323.753.485 1.18.485s.855-.162 1.18-.485l3.482-3.467.001-.002 1.01-1-.004-.004c.006-.006.015-.009.022-.015l5.166-5.658 3.471.494a.52.52 0 0 0 .262-.033c.018-.006.033-.015.05-.023.019-.01.039-.015.058-.027l3.213-2.133c.012-.008.018-.021.029-.029.013-.01.029-.014.041-.026l1.271-1.191c.662-.62.753-1.635.212-2.362zM2.13 17.77a.714.714 0 0 1-.558.052.717.717 0 0 1-.213-1.26l1.314-.632.449 1.312-.992.528zm3.498-1.828-1.548.8-.439-1.283 2.027-1.001-.04 1.484zm15.099-6.62a5.79 5.79 0 0 1-.599 2.559l-4.181-1.899a1.863 1.863 0 0 0-.788-1.388l1.464-4.86c2.378.756 4.105 2.974 4.105 5.588zm-11.789 0c0-3.235 2.644-5.867 5.894-5.867.253 0 .5.021.745.052l-1.432 4.754c-.019-.001-.037-.006-.057-.006-1.033 0-1.873.837-1.873 1.867s.84 1.867 1.873 1.867c.694 0 1.294-.383 1.618-.945l3.862 1.755a5.894 5.894 0 0 1-4.737 2.39c-3.25 0-5.894-2.632-5.894-5.867zm5.956.8c0 .441-.362.8-.806.8s-.806-.359-.806-.8c0-.441.362-.8.806-.8s.806.359.806.8zM2.465 25.146a.608.608 0 0 1-.854.001.592.592 0 0 1 0-.844l.962-.958.851.848-.959.955zm3.214 3.734a.608.608 0 0 1-.855.001.592.592 0 0 1 0-.844l.963-.959.852.848-.96.955zm3.481-3.469-.002.001-1.765 1.76-.852-.848 1.763-1.755.002-.001c.04-.04.065-.088.09-.135.007-.014.02-.026.026-.04.017-.041.019-.085.026-.129.003-.025.014-.047.014-.073 0-.036-.013-.07-.02-.106-.006-.032-.006-.065-.019-.095a.55.55 0 0 0-.091-.138c-.01-.012-.014-.027-.025-.038h-.001l-.001-.002-1.607-1.6c-.017-.017-.039-.024-.058-.038a.507.507 0 0 0-.087-.058.515.515 0 0 0-.093-.033.507.507 0 0 0-.103-.02.5.5 0 0 0-.095.005.53.53 0 0 0-.104.02.477.477 0 0 0-.094.045c-.02.011-.042.015-.061.029L4.23 23.486l-.901-.897 2.399-2.386 4.361 4.289-.928.919zm6.819-7.017c-.015-.002-.03.004-.045.003a.556.556 0 0 0-.3.075.492.492 0 0 0-.083.061c-.013.011-.028.017-.04.029l-4.698 5.146-4.328-4.257 2.833-2.818a.534.534 0 0 0-.379-.911v-.001l-2.219.013.028-1.607 3.104.027a6.947 6.947 0 0 0 4.981 2.101c.437 0 .864-.045 1.279-.123.04.032.079.065.13.085l2.41.96.331 1.644-3.003-.427zm4.041.178-.313-1.558 1.446-1.08.947 1.257-2.08 1.381zm3.754-2.831-.838.785-.931-1.236.831-.637a.735.735 0 0 1 .543-.143.718.718 0 0 1 .48.284.713.713 0 0 1-.085.947z"/><path fill="#212121" style="fill:var(--color1, #212121)" d="m13.602 18.544-2.143-2.133a.534.534 0 0 0-.753 0l-2.142 2.133a.537.537 0 0 0 0 .756l2.142 2.133a.536.536 0 0 0 .753 0l2.143-2.133a.535.535 0 0 0 0-.756zm-2.519 1.759-1.387-1.381 1.387-1.381 1.387 1.381-1.387 1.381zM17.164 5.071l-.258 1.036c.071.018 1.738.452 1.738 2.149h1.067c0-2.017-1.666-2.965-2.547-3.185zM19.711 9.322h-1.067v1.067h1.067V9.322z"/></symbol><symbol id="icon-clock" viewBox="0 0 32 32"><path fill="#212121" style="fill:var(--color1, #212121)" d="M31.297 15.301C31.295 6.849 24.442-.002 15.989 0S.686 6.855.688 15.308a15.304 15.304 0 0 0 10.649 14.576.662.662 0 0 0 .529-.065.637.637 0 0 0 .283-.356l3.865-12.25a1.912 1.912 0 1 0-.84-3.635l-5.106-5.107a.637.637 0 0 0-.902.902l5.103 5.109a1.876 1.876 0 0 0 .536 2.309l-3.683 11.673C3.844 25.783.118 17.71 2.799 10.432S13.553-.572 20.831 2.109s11.004 10.754 8.323 18.032a14.042 14.042 0 0 1-7.462 7.973l-.398-1.874a.638.638 0 0 0-1.048-.344l-3.837 3.426a.637.637 0 0 0 .231 1.084l4.899 1.563a.638.638 0 0 0 .819-.74l-.391-1.839a15.255 15.255 0 0 0 9.329-14.089zm-15.305-.637a.638.638 0 1 1 0 1.277.638.638 0 0 1 0-1.277zm2.101 14.864 2.184-1.948.603 2.84-2.787-.892z"/><path fill="#2196f3" style="fill:var(--color2, #2196f3)" d="M15.354 3.185V4.46a.638.638 0 1 0 1.276 0V3.185a.638.638 0 0 0-1.276 0zM3.876 14.664a.638.638 0 0 0 0 1.276h1.275a.638.638 0 1 0 0-1.276H3.876zM28.108 15.939a.638.638 0 1 0 0-1.276h-1.275a.638.638 0 0 0 0 1.276h1.275z"/></symbol><symbol id="icon-diagram" viewBox="0 0 32 32"><path fill="#2196f3" style="fill:var(--color2, #2196f3)" d="M14.926 14.965h1.066v4.798h-1.066v-4.797zM19.19 17.097h1.066v2.665H19.19v-2.665zM10.661 18.696h1.066v1.066h-1.066v-1.066zM7.463 18.163h1.066v1.599H7.463v-1.599z"/><path fill="#212121" style="fill:var(--color1, #212121)" d="M1.599 28.291h25.587a1.6 1.6 0 0 0 1.599-1.599V24.56a1.6 1.6 0 0 0-1.599-1.599h-.533V9.668L29.681 6.8a1.608 1.608 0 1 0-.746-.763L26.654 8.2V6.97a1.6 1.6 0 0 0-1.599-1.599H3.733A1.6 1.6 0 0 0 2.134 6.97v15.992h-.533a1.6 1.6 0 0 0-1.599 1.599v2.132a1.6 1.6 0 0 0 1.599 1.599zM30.384 4.837a.533.533 0 1 1 0 1.067.533.533 0 0 1 0-1.067zM3.198 6.969c0-.294.239-.533.533-.533h21.322c.294 0 .533.239.533.533v2.239l-1.066 1.013V8.035a.533.533 0 0 0-.533-.533H4.797a.533.533 0 0 0-.533.533v13.326c0 .294.239.533.533.533h19.19a.533.533 0 0 0 .533-.533v-9.674l1.066-1.01v12.284H3.198V6.969zm4.798 6.93a1.598 1.598 0 1 0 1.107 2.749l1.853.93a.532.532 0 0 0 .636-.123l3.939-4.431 3.872 2.901a.533.533 0 0 0 .686-.039l3.365-3.188v8.131H5.33V8.569h18.124v2.66l-3.771 3.572-3.904-2.927a.533.533 0 0 0-.718.072l-3.993 4.493-1.493-.746c.011-.064.018-.129.02-.193a1.6 1.6 0 0 0-1.599-1.599zm.533 1.599a.533.533 0 1 1-1.067 0 .533.533 0 0 1 1.067 0zm3.198 8.529h5.331v.533a.533.533 0 0 1-.533.533h-4.264a.533.533 0 0 1-.533-.533v-.533zm-10.661.533c0-.294.239-.533.533-.533h9.062v.533a1.6 1.6 0 0 0 1.599 1.599h4.264a1.6 1.6 0 0 0 1.599-1.599v-.533h9.062c.294 0 .533.239.533.533v2.132a.533.533 0 0 1-.533.533H1.598a.533.533 0 0 1-.533-.533V24.56z"/></symbol><symbol id="icon-envelope" viewBox="0 0 43 32"><path d="M38.667 0H4C1.794 0 0 1.794 0 4v24c0 2.206 1.794 4 4 4h34.667c2.206 0 4-1.794 4-4V4c0-2.206-1.794-4-4-4zm0 2.667c.181 0 .353.038.511.103L21.334 18.236 3.49 2.77a1.32 1.32 0 0 1 .511-.103h34.667zm0 26.666H4A1.334 1.334 0 0 1 2.667 28V5.587L20.46 21.008a1.335 1.335 0 0 0 1.748 0L40.001 5.587V28c0 .736-.598 1.333-1.333 1.333z"/></symbol><symbol id="icon-facebook" viewBox="0 0 32 32"><path d="M21.329 5.313h2.921V.225C23.746.156 22.013 0 19.994 0c-4.212 0-7.097 2.649-7.097 7.519V12H8.249v5.688h4.648V32h5.699V17.689h4.46l.708-5.688h-5.169V8.082c.001-1.644.444-2.769 2.735-2.769z"/></symbol><symbol id="icon-instagram" viewBox="0 0 32 32"><path d="M31.969 9.408c-.075-1.7-.35-2.869-.744-3.882a7.806 7.806 0 0 0-1.851-2.838A7.867 7.867 0 0 0 26.542.844C25.523.45 24.36.175 22.66.1 20.947.019 20.403 0 16.059 0s-4.888.019-6.595.094c-1.7.075-2.869.35-3.882.744a7.803 7.803 0 0 0-2.838 1.85A7.867 7.867 0 0 0 .9 5.52C.506 6.539.231 7.702.156 9.402c-.081 1.713-.1 2.257-.1 6.601s.019 4.888.094 6.595c.075 1.7.35 2.869.744 3.882a7.895 7.895 0 0 0 1.85 2.838 7.867 7.867 0 0 0 2.832 1.844c1.019.394 2.182.669 3.882.744 1.706.075 2.25.094 6.595.094s4.888-.019 6.595-.094c1.7-.075 2.869-.35 3.882-.744a8.184 8.184 0 0 0 4.682-4.682c.394-1.019.669-2.182.744-3.882.075-1.707.094-2.251.094-6.595s-.006-4.888-.081-6.595zm-2.882 13.065c-.069 1.563-.331 2.407-.55 2.969a5.31 5.31 0 0 1-3.038 3.038c-.563.219-1.413.481-2.969.55-1.688.075-2.194.094-6.464.094s-4.782-.019-6.464-.094c-1.563-.069-2.407-.331-2.969-.55a4.926 4.926 0 0 1-1.838-1.194 4.974 4.974 0 0 1-1.194-1.838c-.219-.563-.481-1.413-.55-2.969-.075-1.688-.094-2.194-.094-6.464s.019-4.782.094-6.464c.069-1.563.331-2.407.55-2.969a4.868 4.868 0 0 1 1.2-1.838A4.974 4.974 0 0 1 6.639 3.55c.563-.219 1.413-.481 2.969-.55 1.688-.075 2.194-.094 6.464-.094 4.276 0 4.782.019 6.464.094 1.563.069 2.407.331 2.969.55a4.914 4.914 0 0 1 1.838 1.194 4.974 4.974 0 0 1 1.194 1.838c.219.563.481 1.413.55 2.969.075 1.688.094 2.194.094 6.464s-.019 4.77-.094 6.458z"/><path d="M16.059 7.783c-4.538 0-8.22 3.682-8.22 8.22s3.682 8.22 8.22 8.22c4.539 0 8.22-3.682 8.22-8.22s-3.682-8.22-8.22-8.22zm0 13.552a5.333 5.333 0 0 1 0-10.664 5.333 5.333 0 0 1 0 10.664zM26.524 7.458a1.919 1.919 0 1 1-3.838 0 1.919 1.919 0 0 1 3.838 0z"/></symbol><symbol id="icon-linkedin" viewBox="0 0 32 32"><path d="M31.992 32v-.001H32V20.263c0-5.741-1.236-10.164-7.948-10.164-3.227 0-5.392 1.771-6.276 3.449h-.093v-2.913h-6.364v21.364h6.627V21.42c0-2.785.528-5.479 3.977-5.479 3.399 0 3.449 3.179 3.449 5.657v10.401h6.62zM.528 10.636h6.635V32H.528V10.636zM3.843 0C1.722 0 0 1.721 0 3.843s1.721 3.879 3.843 3.879c2.121 0 3.843-1.757 3.843-3.879A3.846 3.846 0 0 0 3.843 0z"/></symbol><symbol id="icon-Logo-1" viewBox="0 0 56 32"><path d="M26.289 3.594h-.072c-.11-.007-.22-.009-.33-.012h-.239c-.208 0-.421.005-.632.016a.384.384 0 0 0-.048 0 14.832 14.832 0 0 0-5.517 1.407l-.227.109v11.615l.531-.18c.466-.16.962-.304 1.476-.438a18.007 18.007 0 0 1 4.247-.564v1.526c-.19.001-.374.007-.559.016h-.044a16.936 16.936 0 0 0-3.267.502 16.559 16.559 0 0 0-3.892 1.517V4.211a15.6 15.6 0 0 1 4.083-1.661 15.622 15.622 0 0 1 3.849-.496h.224c.268.007.53.019.775.037a11.12 11.12 0 0 1 1.918.305v1.502a11.89 11.89 0 0 0-1.858-.28l-.038-.003a4.592 4.592 0 0 0-.38-.022zm2.644 1.536c.333.025.678.037 1.027.037a16.485 16.485 0 0 0 4.046-.519 16.703 16.703 0 0 0 3.891-1.518v14.631a15.648 15.648 0 0 1-4.085 1.661c-1.258.323-2.55.49-3.849.495a11.779 11.779 0 0 1-2.92-.344V4.847a12.161 12.161 0 0 0 1.888.283zm7.446.113-.531.179c-.488.164-.981.311-1.476.442-1.441.37-2.922.56-4.41.566-.346 0-.665-.009-.973-.029l-.423-.028v11.949l.364.032c.337.029.685.044 1.035.044a14.086 14.086 0 0 0 3.473-.45 14.572 14.572 0 0 0 2.714-.975l.227-.109V5.245zM18.747 24.199a.776.776 0 0 0-.591-.238.865.865 0 0 0-.341.064.768.768 0 0 0-.436.442.865.865 0 0 0-.061.329v1.99c-.005.14.022.28.078.408a.805.805 0 0 0 .199.267c.08.067.173.115.273.141.097.027.197.041.297.041a.841.841 0 0 0 .824-.837v-.223h-.52v.177a.444.444 0 0 1-.031.177.318.318 0 0 1-.076.112.367.367 0 0 1-.218.076.267.267 0 0 1-.244-.106.473.473 0 0 1-.069-.267v-1.856a.634.634 0 0 1 .064-.297.264.264 0 0 1 .255-.12.279.279 0 0 1 .232.112.42.42 0 0 1 .086.267v.172h.515v-.203a.942.942 0 0 0-.064-.348.814.814 0 0 0-.174-.28zM21.838 24.176a.93.93 0 0 0-.592-.219.895.895 0 0 0-.586.219.823.823 0 0 0-.202.279.947.947 0 0 0-.076.386v1.909a.907.907 0 0 0 .076.391.769.769 0 0 0 .202.267c.08.074.173.131.275.168a.891.891 0 0 0 .903-.168.8.8 0 0 0 .196-.267.937.937 0 0 0 .076-.391v-1.909a.915.915 0 0 0-.076-.386.865.865 0 0 0-.196-.279zm-.243 2.574a.349.349 0 0 1-.104.276.379.379 0 0 1-.49 0 .349.349 0 0 1-.104-.276v-1.909a.349.349 0 0 1 .104-.276.379.379 0 0 1 .49 0 .349.349 0 0 1 .104.276v1.909zM25.898 27.602v-3.614h-.5l-.657 1.913h-.009l-.662-1.913h-.495v3.614h.516v-2.198h.009l.506 1.554h.257l.51-1.554h.009v2.198h.516zM28.83 24.242a.718.718 0 0 0-.292-.197 1.158 1.158 0 0 0-.374-.056h-.767v3.614h.515v-1.411h.265a.941.941 0 0 0 .464-.099.848.848 0 0 0 .401-.591c.02-.136.03-.273.028-.411a2.078 2.078 0 0 0-.05-.516.768.768 0 0 0-.19-.332zm-.265 1.102a.455.455 0 0 1-.048.188.287.287 0 0 1-.133.127.519.519 0 0 1-.243.045h-.235v-1.229h.265c.08-.004.16.012.232.045a.294.294 0 0 1 .121.133.516.516 0 0 1 .045.201v.24c0 .084.005.171 0 .248h-.005zM31.27 23.988h-.422l-.796 3.614h.515l.151-.776h.702l.151.776h.515l-.816-3.614zm-.476 2.345.253-1.31h.009l.252 1.31h-.515zM34.597 26.165h-.009l-.778-2.177h-.495v3.614h.515v-2.173h.011l.787 2.173h.484v-3.614h-.515v2.177zM37.743 23.988l-.414 1.437h-.011l-.414-1.437h-.545l.707 2.086v1.527h.515v-1.527l.707-2.086h-.545zM17.311 28.622h.248v.696h.169v-.696h.247v-.143h-.664v.143zM19.398 28.48l-.325.839h.179l.069-.191h.334l.072.191h.183l-.333-.839h-.179zm-.027.507.114-.311.114.311h-.228zM21.46 29.009h.194v.108a.329.329 0 0 1-.199.071.21.21 0 0 1-.178-.08.355.355 0 0 1-.062-.219c0-.187.081-.28.242-.28.042-.004.085.007.119.031s.06.061.07.102l.166-.032c-.036-.164-.154-.247-.356-.247a.421.421 0 0 0-.293.108.416.416 0 0 0-.121.323.454.454 0 0 0 .108.315.408.408 0 0 0 .319.122.505.505 0 0 0 .356-.133v-.331h-.364v.141zM23.566 28.48h-.17v.839h.588v-.143h-.418v-.696zM25.347 28.48h-.17v.839h.17v-.839zM27.088 29.04l-.344-.56h-.165v.839h.158v-.548l.337.548h.169v-.839h-.155v.56zM28.662 28.949h.418v-.143h-.418v-.184h.45v-.143h-.62v.839h.637v-.143h-.467v-.227zM32.479 28.811h-.33v-.331h-.169v.839h.169v-.367h.33v.367h.169v-.839h-.169v.331zM34.062 28.949h.419v-.143h-.419v-.184h.451v-.143h-.62v.839h.636v-.143h-.467v-.227zM36.209 28.949c.146-.023.22-.1.22-.233a.2.2 0 0 0-.083-.187.474.474 0 0 0-.245-.049h-.356v.839h.169v-.351h.033a.223.223 0 0 1 .105.019.175.175 0 0 1 .06.061l.183.267h.202l-.102-.164a.578.578 0 0 0-.186-.201zm-.17-.116h-.125v-.211h.133a.43.43 0 0 1 .171.02c.012.011.022.024.028.039s.009.031.009.048c-.001.016-.005.032-.013.047s-.019.027-.032.037a.47.47 0 0 1-.171.02zM37.828 28.949h.418v-.143h-.418v-.184h.451v-.143h-.621v.839h.637v-.143h-.467v-.227z"/></symbol><symbol id="icon-Logo-2" viewBox="0 0 56 32"><path d="M19.098 26.239a.064.064 0 0 1 .044.018l.114.109a.966.966 0 0 1-.322.208c-.144.053-.3.078-.456.075a1.196 1.196 0 0 1-.429-.07.887.887 0 0 1-.532-.499 1.006 1.006 0 0 1-.073-.389.893.893 0 0 1 .301-.693c.098-.086.215-.153.343-.198.141-.047.291-.071.442-.07.14-.003.28.019.41.063.113.043.217.102.308.175l-.096.117a.12.12 0 0 1-.024.021.065.065 0 0 1-.039.009.093.093 0 0 1-.041-.012l-.052-.031-.072-.04a.946.946 0 0 0-.396-.081.947.947 0 0 0-.318.052.724.724 0 0 0-.249.147.69.69 0 0 0-.162.234.8.8 0 0 0-.059.308.785.785 0 0 0 .059.313.673.673 0 0 0 .396.376.84.84 0 0 0 .295.05 1.26 1.26 0 0 0 .174-.01.69.69 0 0 0 .378-.16.094.094 0 0 1 .054-.02zM22.402 25.69a.945.945 0 0 1-.077.387c-.047.112-.12.214-.215.3s-.211.153-.338.197c-.28.093-.59.093-.87 0a.993.993 0 0 1-.336-.198.878.878 0 0 1-.217-.303 1.008 1.008 0 0 1 0-.774.933.933 0 0 1 .217-.305 1.01 1.01 0 0 1 .336-.19c.28-.094.59-.094.87 0 .127.045.242.112.338.198a.877.877 0 0 1 .216.3.951.951 0 0 1 .077.389zm-.3 0a.832.832 0 0 0-.054-.311.63.63 0 0 0-.395-.379 1.004 1.004 0 0 0-.632 0 .684.684 0 0 0-.242.147.62.62 0 0 0-.154.232.908.908 0 0 0 0 .621.633.633 0 0 0 .396.377c.204.066.428.066.632 0a.68.68 0 0 0 .242-.145.647.647 0 0 0 .153-.232.81.81 0 0 0 .054-.311zM24.656 26.015l.03.07a1.136 1.136 0 0 1 .07-.138l.731-1.154c.014-.02.027-.032.041-.036a.2.2 0 0 1 .06-.006h.216v1.878h-.256V25.19a.705.705 0 0 1 0-.065l-.735 1.171c-.009.018-.024.032-.043.043s-.041.016-.063.016h-.041c-.022 0-.044-.005-.063-.015s-.034-.025-.043-.043l-.757-1.178v1.508h-.247v-1.874h.216a.2.2 0 0 1 .06.006c.018.008.032.02.04.036l.747 1.156a.366.366 0 0 1 .037.067zM27.407 25.922v.703h-.286V24.75h.638c.12-.002.24.012.356.041a.72.72 0 0 1 .252.117.477.477 0 0 1 .143.184.57.57 0 0 1 .049.24.522.522 0 0 1-.207.428.729.729 0 0 1-.253.124 1.21 1.21 0 0 1-.345.044l-.346-.005zm0-.201h.346a.792.792 0 0 0 .222-.029.474.474 0 0 0 .16-.081.363.363 0 0 0 .131-.282c.003-.052-.006-.104-.029-.153s-.056-.092-.1-.128a.619.619 0 0 0-.385-.101h-.346v.773zM31.251 26.628h-.226a.105.105 0 0 1-.063-.017.12.12 0 0 1-.037-.044l-.195-.454h-.977l-.202.454a.11.11 0 0 1-.1.061h-.226l.858-1.878h.297l.87 1.878zm-1.416-.697h.807l-.34-.764a1.28 1.28 0 0 1-.064-.176l-.033.098a.967.967 0 0 1-.031.08l-.338.763zM32.487 24.759a.12.12 0 0 1 .043.034l1.252 1.416V24.751h.256v1.878h-.143a.132.132 0 0 1-.059-.011.16.16 0 0 1-.046-.035l-1.25-1.414a.704.704 0 0 1 0 .065v1.395h-.256v-1.878h.152c.018 0 .035.003.051.009zM36.146 25.881v.746h-.286v-.746l-.791-1.131h.256a.11.11 0 0 1 .062.016.155.155 0 0 1 .039.042l.495.73a1.073 1.073 0 0 1 .087.167l.037-.081a.613.613 0 0 1 .049-.086l.488-.734a.2.2 0 0 1 .037-.04.094.094 0 0 1 .061-.019h.259l-.792 1.136zM24.515 21.599c.124.014.25.025.378.035 1.93-.75 3.563-1.978 4.694-3.53s1.711-3.359 1.667-5.195l-2.127-1.848c.432 1.955.23 3.977-.584 5.838s-2.209 3.489-4.027 4.7z"/><path d="m23.755 21.513.057.01c1.943-1.207 3.424-2.894 4.253-4.841s.965-4.065.393-6.08L25.429 7.97c1.225 2.163 1.718 4.585 1.422 6.982s-1.37 4.672-3.096 6.561zM34.029 15.079c-.515 2.018-1.765 3.838-3.564 5.189-.526.397-1.093.751-1.693 1.056 1.465-.374 2.812-1.036 3.937-1.934s1.997-2.008 2.549-3.246l-1.229-1.066z"/><path d="m33.547 14.781-1.749-1.52c-.033 1.733-.6 3.426-1.642 4.904s-2.52 2.687-4.281 3.5h.009c.392 0 .785-.02 1.174-.061 1.646-.584 3.1-1.512 4.232-2.703s1.908-2.606 2.257-4.121zM24.009 6.861l-2.087-1.816c-1.866.626-3.47 1.727-4.603 3.159s-1.743 3.127-1.749 4.865c.007 1.92.751 3.783 2.114 5.295s3.267 2.585 5.411 3.05c1.914-2.026 3.035-4.529 3.199-7.147s-.636-5.212-2.285-7.407zM38.369 14.502c-.008-2.278-1.052-4.461-2.906-6.072s-4.366-2.519-6.988-2.525a11.105 11.105 0 0 0-3.543.573l12.777 11.101a7.55 7.55 0 0 0 .661-3.077z"/></symbol><symbol id="icon-Logo-3" viewBox="0 0 56 32"><path d="M12.667 11.551h-.002c-1.258 0-2.278.906-2.278 2.024v.001c0 1.118 1.02 2.024 2.278 2.024h.002c1.258 0 2.278-.906 2.278-2.024v-.001c0-1.118-1.02-2.024-2.278-2.024zM29.479 10.904c-.004-1.553-.699-3.041-1.934-4.139s-2.91-1.717-4.657-1.72c-1.748.003-3.423.621-4.659 1.719s-1.932 2.587-1.936 4.14v8.563s13.185-1.305 13.186-8.561v-.001zM5.771 22.277c.003 1.08.487 2.116 1.347 2.88s2.024 1.195 3.24 1.198c1.215-.003 2.38-.434 3.24-1.197s1.344-1.799 1.348-2.879v-5.958s-9.174.909-9.174 5.957zm4.587 1.068c-.238 0-.47-.063-.667-.18s-.351-.284-.442-.479c-.091-.195-.115-.41-.068-.617s.161-.397.329-.547c.168-.149.382-.251.615-.292s.475-.02.694.061c.22.081.407.218.539.393a.983.983 0 0 1 .112 1.003 1.08 1.08 0 0 1-.26.348c-.112.1-.244.179-.39.232s-.303.082-.461.082v-.004zM19.629 22.757h-.885v.914h-.461v-2.238h1.457v.373h-.996v.578h.885v.372zm2.216-.154c0 .22-.039.413-.117.579a.88.88 0 0 1-.833.519.891.891 0 0 1-.834-.515 1.318 1.318 0 0 1-.121-.572v-.111c0-.22.039-.414.118-.581a.886.886 0 0 1 .835-.521.88.88 0 0 1 .833.521c.08.167.12.36.12.579v.1zm-.467-.101c0-.235-.042-.413-.126-.535s-.204-.183-.36-.183c-.155 0-.274.061-.358.181s-.127.296-.128.529v.109c0 .228.042.406.126.532s.205.189.363.189c.155 0 .274-.06.357-.181s.125-.299.126-.532v-.109zm1.963.582c0-.087-.031-.154-.092-.2s-.172-.096-.332-.148a2.416 2.416 0 0 1-.38-.154c-.254-.137-.381-.322-.381-.555 0-.121.034-.229.101-.323.069-.095.166-.17.294-.223s.272-.08.43-.08c.16 0 .302.029.427.088a.65.65 0 0 1 .395.604h-.461c0-.102-.032-.182-.097-.238s-.155-.086-.272-.086c-.113 0-.2.024-.263.072a.223.223 0 0 0-.094.188c0 .073.036.134.109.183s.182.095.324.138c.262.079.453.177.573.294s.18.262.18.436c0 .194-.073.346-.22.456s-.344.164-.592.164a1.14 1.14 0 0 1-.47-.094c-.141-.064-.25-.15-.324-.26s-.111-.237-.111-.381h.463c0 .247.148.37.443.37.11 0 .195-.022.257-.066a.221.221 0 0 0 .092-.188zm2.46-1.277h-.685v1.864h-.461v-1.864h-.676v-.373h1.823v.373zm1.611.895h-.885v.599h1.039v.37h-1.5v-2.238h1.497v.373h-1.036v.533h.885v.361zm1.252.15h-.367v.819h-.461v-2.238h.831c.264 0 .468.059.612.177s.215.284.215.499c0 .153-.033.28-.1.383a.679.679 0 0 1-.3.243l.484.914v.021h-.495l-.42-.819zm-.367-.373h.372a.38.38 0 0 0 .269-.088.316.316 0 0 0 .095-.244c0-.106-.03-.189-.091-.249s-.151-.091-.275-.091h-.37v.672zm2.794.404v.788h-.461v-2.238h.873c.168 0 .316.031.443.092a.675.675 0 0 1 .295.263.724.724 0 0 1 .103.386c0 .219-.075.392-.226.519s-.357.189-.622.189h-.404zm0-.373h.412c.122 0 .215-.029.278-.086.065-.057.097-.139.097-.246 0-.11-.032-.198-.097-.266s-.154-.102-.267-.105h-.423v.702zm2.917.192h-.885v.599h1.039v.37h-1.5v-2.238h1.497v.373h-1.036v.533h.885v.361zm2.139-.895h-.685v1.864h-.461v-1.864h-.676v-.373h1.823v.373zm1.611.895h-.885v.599h1.039v.37h-1.5v-2.238h1.497v.373h-1.036v.533h.885v.361zm1.253.15h-.367v.819h-.461v-2.238h.831c.264 0 .468.059.612.177s.215.284.215.499c0 .153-.033.28-.1.383s-.166.182-.3.243l.484.914v.021h-.495l-.42-.819zm-.368-.373h.372a.38.38 0 0 0 .269-.088.316.316 0 0 0 .095-.244.333.333 0 0 0-.091-.249c-.059-.06-.151-.091-.275-.091h-.37v.672zm2.71.605c0-.087-.031-.154-.092-.2s-.172-.096-.332-.148a2.416 2.416 0 0 1-.38-.154c-.254-.137-.381-.322-.381-.555 0-.121.034-.229.101-.323s.166-.17.294-.223c.128-.053.272-.08.43-.08.16 0 .302.029.427.088a.665.665 0 0 1 .29.244c.07.106.105.225.105.36h-.461c0-.102-.032-.182-.097-.238s-.155-.086-.272-.086c-.113 0-.2.024-.263.072a.225.225 0 0 0-.094.188c0 .073.036.134.109.183s.182.095.324.138c.262.079.453.177.573.294s.18.262.18.436c0 .194-.073.346-.22.456s-.344.164-.592.164a1.14 1.14 0 0 1-.47-.094.759.759 0 0 1-.324-.26.666.666 0 0 1-.111-.381h.463c0 .247.148.37.443.37.11 0 .195-.022.257-.066a.221.221 0 0 0 .092-.188z"/></symbol><symbol id="icon-Logo-4" viewBox="0 0 56 32"><path d="M14.036 23.949a.749.749 0 0 1 .192.513c.007.121-.017.243-.069.355s-.13.212-.23.293a1.37 1.37 0 0 1-.866.236H11.54v-3.248h1.492c.295-.018.587.058.827.216.096.074.173.167.223.273s.073.22.067.335a.714.714 0 0 1-.173.497.83.83 0 0 1-.454.254.888.888 0 0 1 .515.278zm-1.786-.491h.638a.644.644 0 0 0 .405-.108c.048-.04.085-.089.109-.144s.033-.114.028-.173c.005-.059-.005-.118-.029-.173s-.06-.104-.107-.145a.65.65 0 0 0-.418-.109h-.627v.852zm1.105 1.246c.051-.041.091-.092.118-.149s.037-.119.033-.181c.004-.063-.008-.125-.035-.183s-.068-.109-.12-.15a.699.699 0 0 0-.433-.117h-.669v.893h.678a.72.72 0 0 0 .428-.113zM17.086 25.345l-.83-1.269h-.312v1.269h-.714v-3.248h1.352c.341-.022.678.077.941.276.189.176.303.409.321.655s-.06.491-.221.689a1.125 1.125 0 0 1-.645.33l.884 1.298h-.776zm-1.142-1.712h.584c.405 0 .608-.164.608-.492.004-.067-.007-.134-.033-.197s-.065-.12-.116-.168a.67.67 0 0 0-.459-.132h-.591l.007.988zM20.989 24.691h-1.423l-.251.654h-.749l1.307-3.212h.809l1.301 3.212h-.749l-.246-.654zm-.191-.492-.52-1.371-.52 1.371h1.04zM25.874 25.345h-.709l-1.589-2.209v2.209h-.707v-3.248h.707l1.589 2.221v-2.221h.709v3.248zM29.919 24.568c-.147.245-.37.445-.641.573a2.248 2.248 0 0 1-.996.205H27.02v-3.248h1.262c.345-.008.687.06.996.2.271.125.495.323.641.566.146.264.222.556.222.852s-.076.588-.222.852zm-.811-.078c.202-.216.314-.491.314-.775s-.111-.559-.314-.775a1.304 1.304 0 0 0-.887-.276h-.492v2.102h.492c.324.019.643-.081.887-.276zM21.433 4.031s9.148 3.162 8.954 7.738v7.74s-9.141-3.164-8.951-7.74l-.003-7.738zM38.537 17.697a13.261 13.261 0 0 1 5.812-1.961v-2.423c-2.404.848-4.443 2.386-5.812 4.384z"/><path d="M37.499 18.427c1.414-2.607 3.866-4.619 6.85-5.622V5.824s-13.028 4.505-12.753 11.021v11.02s.581-.201 1.494-.579c0-.352 0-.708.042-1.065.27-3.025 1.84-5.829 4.367-7.794z"/><path d="M36.26 22.521c.068-.764.221-1.52.456-2.256-1.573 1.697-2.526 3.803-2.724 6.022-.019.209-.029.419-.035.635.74-.325 1.601-.732 2.506-1.209a10.47 10.47 0 0 1-.203-3.191zM36.778 22.56a9.974 9.974 0 0 0 .161 2.889c3.559-1.95 7.559-4.963 7.405-8.605v-.317c-2.543.261-4.922 1.278-6.772 2.897a10.104 10.104 0 0 0-.794 3.135z"/></symbol><symbol id="icon-Logo-5" viewBox="0 0 56 32"><path d="M28.026 14.859a1.544 1.544 0 0 1-.317-1.043v-1.512c0-.464.105-.816.315-1.057s.572-.361 1.084-.36c.481 0 .823.103 1.025.308.22.262.328.582.303.905v.355h-.861v-.36a1.803 1.803 0 0 0-.025-.352.337.337 0 0 0-.123-.209.502.502 0 0 0-.312-.082.525.525 0 0 0-.328.086.407.407 0 0 0-.143.231 1.742 1.742 0 0 0-.034.374v1.836a.933.933 0 0 0 .11.515c.043.055.102.098.172.125s.146.037.222.029c.11.008.22-.022.305-.083a.37.37 0 0 0 .128-.223c.02-.122.029-.245.027-.368v-.372h.861v.34c.024.337-.08.671-.298.951-.198.225-.535.337-1.03.337s-.87-.12-1.082-.369zM31.61 14.875c-.217-.235-.326-.579-.326-1.032v-1.591c0-.449.109-.789.326-1.02s.581-.346 1.091-.345c.506 0 .868.115 1.085.345s.328.571.328 1.02v1.591c0 .449-.11.794-.331 1.031s-.581.355-1.082.355c-.501 0-.871-.12-1.091-.354zm1.492-.382a.886.886 0 0 0 .103-.471v-1.948a.865.865 0 0 0-.102-.462c-.044-.056-.105-.1-.176-.127s-.15-.037-.227-.027c-.077-.009-.156 0-.228.027s-.133.071-.177.127a.845.845 0 0 0-.103.462v1.957a.876.876 0 0 0 .103.471c.05.05.112.089.182.117s.145.041.221.041c.076 0 .152-.014.221-.041s.131-.067.182-.117v-.009zM35.149 10.933h.927l.697 2.935.713-2.935h.902l.091 4.237h-.667l-.071-2.945-.688 2.945h-.535l-.713-2.955-.066 2.955h-.674l.084-4.237zM39.517 10.933h1.444c.832 0 1.247.401 1.247 1.203 0 .768-.438 1.152-1.313 1.151h-.492v1.883h-.891l.005-4.237zm1.234 1.811c.088.01.177.003.262-.02s.162-.062.228-.113a.686.686 0 0 0 .128-.478 1.32 1.32 0 0 0-.043-.385c-.013-.042-.035-.082-.066-.116s-.069-.064-.113-.085a.922.922 0 0 0-.397-.068h-.346v1.266h.346zM43.493 10.933h.957l.982 4.237h-.83l-.194-.977h-.854l-.2.977h-.843l.982-4.237zm.818 2.769-.333-1.779-.333 1.779h.666zM46.225 10.933h.624l1.194 2.417v-2.417h.74v4.237h-.593l-1.201-2.523v2.523h-.765l.002-4.237zM50.515 13.554l-.993-2.616h.836l.606 1.68.569-1.68h.818l-.98 2.616v1.615h-.855v-1.615zM29.402 17.022v.222h-.727v1.722h-.305v-1.722h-.731v-.222h1.763zM31.681 18.966h-.235a.108.108 0 0 1-.066-.018.1.1 0 0 1-.039-.045l-.21-.462h-1.009l-.21.462a.13.13 0 0 1-.032.052.108.108 0 0 1-.066.018h-.235l.891-1.943h.31l.902 1.935zm-1.475-.722h.841l-.356-.791a1.54 1.54 0 0 1-.066-.183l-.034.103-.032.082-.353.789zM33.218 18.775a.99.99 0 0 0 .31-.023c.044-.009.087-.021.128-.035.039-.014.078-.031.119-.048v-.437h-.356c-.009 0-.018-.001-.026-.003s-.016-.007-.022-.012c-.006-.004-.011-.01-.014-.016s-.005-.013-.004-.019v-.149h.691v.745a1.247 1.247 0 0 1-.376.158 1.509 1.509 0 0 1-.223.04 2.811 2.811 0 0 1-.26.012 1.358 1.358 0 0 1-.449-.072 1.08 1.08 0 0 1-.356-.203.95.95 0 0 1-.23-.308.973.973 0 0 1-.082-.403.899.899 0 0 1 .31-.714c.102-.087.223-.156.356-.202.153-.05.315-.074.478-.072.083 0 .166.006.248.017.072.01.144.027.212.049a1.152 1.152 0 0 1 .333.179l-.086.12a.08.08 0 0 1-.07.037.125.125 0 0 1-.055-.015c-.027-.012-.055-.028-.087-.046a.84.84 0 0 0-.119-.052 1.129 1.129 0 0 0-.39-.06 1.05 1.05 0 0 0-.344.054.681.681 0 0 0-.428.396.905.905 0 0 0 0 .648c.039.091.1.175.178.245a.763.763 0 0 0 .26.154.974.974 0 0 0 .353.038zM36.058 18.744h.973v.222H35.76v-1.943h.305l-.007 1.722zM38.044 18.965h-.305v-1.943h.305v1.943zM39.177 17.031a.148.148 0 0 1 .046.035l1.303 1.465a.397.397 0 0 1 0-.069v-1.448h.266v1.951h-.153a.136.136 0 0 1-.066-.011.162.162 0 0 1-.048-.037l-1.301-1.463V18.965h-.255v-1.943h.159c.017 0 .034.003.05.009zM43.035 17.022v.214h-1.08v.642h.875v.206h-.875v.663h1.08v.214h-1.394v-1.939h1.394zM11.101 5.022l13.532 3.317v11.624l-13.532-3.316V5.022zm-.868-.991v13.181l15.266 3.743V7.776L10.233 4.031z"/><path d="M18.415 27.074 3.147 23.328v-13.18l15.268 3.745v13.181z"/><path d="m10.486 4.872 13.355 3.276-5.68 4.905L4.804 9.776l5.681-4.903zm-.253-.841-7.086 6.117 15.268 3.745 7.084-6.117-15.266-3.745zM19.274 26.332l6.225-5.376-6.225-1.528v6.903z"/></symbol><symbol id="icon-Logo" viewBox="0 0 56 32"><path d="m19.934 4.153 3.676 3.48-6.824-.004v16.885h17.836v-6.456l3.672 3.476V4.152H19.933zM34.462 17.65 24.038 7.782h10.424v9.868zm-3.237 4.395H19.609V10.689h.821v10.587h10.795v.769zm-8.873 4.718-.429.884-.429-.884h-.36l.626 1.178v.686h.325v-.686l.625-1.178h-.359zm.539 1.864.151-.434h.722l.152.434h.338l-.706-1.865h-.291l-.704 1.865h.337zm.513-1.469.27.774h-.541l.27-.774zm1.708.729a.424.424 0 0 0-.07.237c0 .157.055.285.165.383s.259.146.443.146.343-.05.476-.15l.105.124h.361l-.274-.324c.108-.147.161-.335.161-.565h-.27a.748.748 0 0 1-.078.342l-.36-.425.127-.092c.09-.065.154-.13.193-.195a.411.411 0 0 0-.072-.511.471.471 0 0 0-.333-.12c-.15 0-.27.043-.359.128s-.133.2-.133.346c0 .06.014.122.042.186s.08.142.152.233a1.115 1.115 0 0 0-.278.257zm.842.412a.476.476 0 0 1-.295.105c-.093 0-.167-.027-.223-.081s-.083-.124-.083-.21c0-.1.051-.189.154-.266l.04-.028.407.48zm-.335-.826c-.088-.108-.132-.198-.132-.27 0-.062.018-.114.054-.155s.084-.061.145-.061c.056 0 .103.017.14.052s.055.076.055.124a.231.231 0 0 1-.079.181l-.04.032-.142.097zm3.036 1.013a.672.672 0 0 0 .22-.466h-.323c-.017.133-.058.228-.122.286s-.16.086-.287.086c-.139 0-.245-.053-.318-.159s-.108-.259-.108-.461v-.165c.002-.199.04-.35.115-.452s.184-.155.325-.155c.121 0 .213.03.275.09s.102.155.118.289h.323c-.02-.204-.094-.362-.219-.474s-.291-.168-.497-.168a.708.708 0 0 0-.673.419 1.097 1.097 0 0 0-.093.465v.174c.003.172.035.322.096.452s.149.23.261.301c.114.07.245.105.393.105.213 0 .383-.055.511-.166zm1.904-.261c.063-.138.095-.299.095-.482v-.104c-.001-.182-.033-.341-.097-.478a.715.715 0 0 0-.676-.425.746.746 0 0 0-.405.111c-.117.073-.208.18-.273.319s-.096.3-.096.482v.105c.001.178.033.336.097.473s.156.242.274.316a.76.76 0 0 0 .405.11c.153 0 .288-.037.405-.11s.208-.18.272-.318zm-.347-1.054c.079.11.118.269.118.475v.097c0 .21-.039.37-.117.479s-.187.164-.33.164c-.142 0-.253-.056-.333-.168s-.119-.27-.119-.475v-.108c.002-.201.042-.356.12-.465s.189-.165.329-.165c.143 0 .254.055.332.165z"/></symbol><symbol id="icon-smartphone-1" viewBox="0 0 20 32"><path d="M17 0H3C1.346 0 0 1.346 0 3v26c0 1.654 1.346 3 3 3h14c1.654 0 3-1.346 3-3V3c0-1.654-1.346-3-3-3zM3 2h14a1 1 0 0 1 1 1v21H2V3a1 1 0 0 1 1-1zm14 28H3a1 1 0 0 1-1-1v-3h16v3a1 1 0 0 1-1 1z"/><path d="M4.707 27.478c.391.365.391.956 0 1.321s-1.024.365-1.414 0c-.391-.365-.391-.956 0-1.321s1.024-.365 1.414 0z"/></symbol>




<symbol id="icon-close-black" viewBox="0 0 32 32">
<path d="M26.667 7.303l-1.97-1.97-7.808 7.808-7.808-7.808-1.97 1.97 7.808 7.808-7.808 7.808 1.97 1.97 7.808-7.808 7.808 7.808 1.97-1.97-7.808-7.808 7.808-7.808z"></path>
</symbol>
<symbol id="icon-email" viewBox="0 0 32 32">
<path d="M26.667 5.333h-21.333c-1.467 0-2.653 1.2-2.653 2.667l-0.013 16c0 1.467 1.2 2.667 2.667 2.667h21.333c1.467 0 2.667-1.2 2.667-2.667v-16c0-1.467-1.2-2.667-2.667-2.667zM26.133 11l-9.427 5.893c-0.427 0.267-0.987 0.267-1.413 0l-9.427-5.893c-0.333-0.213-0.533-0.573-0.533-0.96 0-0.893 0.973-1.427 1.733-0.96l8.933 5.587 8.933-5.587c0.76-0.467 1.733 0.067 1.733 0.96 0 0.387-0.2 0.747-0.533 0.96z"></path>
</symbol>
<symbol id="icon-check" viewBox="0 0 34 32">
<path  d="M4.267 0h25.6c2.356 0 4.267 1.91 4.267 4.267v23.467c0 2.356-1.91 4.267-4.267 4.267h-25.6c-2.356 0-4.267-1.91-4.267-4.267v-23.467c0-2.356 1.91-4.267 4.267-4.267z"></path>
<path fill="#fff" style="fill: var(--color2, #fff); stroke: var(--color2, #fff)" stroke="#fff" stroke-linejoin="miter" stroke-linecap="butt" stroke-miterlimit="4" stroke-width="0.4267" d="M8.442 16.537l-0.147-0.14-2.205 2.088 7.767 7.41 16.318-15.567-2.19-2.089-14.128 13.465-5.416-5.167z"></path>
</symbol>
<symbol id="icon-person" viewBox="0 0 32 32">
<path  d="M16 16c2.947 0 5.333-2.387 5.333-5.333s-2.387-5.333-5.333-5.333c-2.947 0-5.333 2.387-5.333 5.333s2.387 5.333 5.333 5.333zM16 18.667c-3.56 0-10.667 1.787-10.667 5.333v1.333c0 0.733 0.6 1.333 1.333 1.333h18.667c0.733 0 1.333-0.6 1.333-1.333v-1.333c0-3.547-7.107-5.333-10.667-5.333z"></path>
</symbol>
<symbol id="icon-phone" viewBox="0 0 32 32">
<path d="M24.882 19.773l-3.268-0.373c-0.785-0.090-1.557 0.18-2.11 0.733l-2.367 2.367c-3.641-1.853-6.626-4.825-8.478-8.478l2.38-2.38c0.553-0.553 0.823-1.325 0.733-2.11l-0.373-3.242c-0.154-1.299-1.248-2.277-2.56-2.277h-2.226c-1.454 0-2.663 1.209-2.573 2.663 0.682 10.987 9.469 19.761 20.443 20.443 1.454 0.090 2.663-1.119 2.663-2.573v-2.226c0.013-1.299-0.965-2.393-2.264-2.547z"></path>
</symbol>

<symbol id="icon-ramka" viewBox="0 0 34 32">
<path d="M30.341 3.556v24.889h-26.548v-24.889h26.548zM30.341 0h-26.548c-2.086 0-3.793 1.6-3.793 3.556v24.889c0 1.956 1.707 3.556 3.793 3.556h26.548c2.086 0 3.793-1.6 3.793-3.556v-24.889c0-1.956-1.707-3.556-3.793-3.556z"></path>
</symbol>

<symbol id="icon-check" viewBox="0 0 42 32">
<path fill="#fff" style="fill: var(--color1, #fff); stroke: var(--color1, #fff)" stroke="#fff" stroke-linejoin="miter" stroke-linecap="butt" stroke-miterlimit="4" stroke-width="0.64" d="M6.263 15.205l-0.22-0.21-3.307 3.132 11.651 11.114 24.477-23.351-3.285-3.134-21.192 20.197-8.124-7.75z"></path>
</symbol>

<symbol id="icon-send" viewBox="0 0 32 32">
<path  d="M32 0l-32 18 10.227 3.788 15.773-14.788-11.998 16.186 0.010 0.004-0.012-0.004v8.814l5.735-6.691 7.265 2.691 5-28z"></path>
</symbol>

<symbol id="icon-icon-check-1" viewBox="0 0 34 32">
<path fill="#2196f3" style="fill: var(--color1, #2196f3)" d="M4.267 0h25.6c2.356 0 4.267 1.91 4.267 4.267v23.467c0 2.356-1.91 4.267-4.267 4.267h-25.6c-2.356 0-4.267-1.91-4.267-4.267v-23.467c0-2.356 1.91-4.267 4.267-4.267z"></path>
<path fill="#fff" style="fill: var(--color2, #fff); stroke: var(--color2, #fff)" stroke="#fff" stroke-linejoin="miter" stroke-linecap="butt" stroke-miterlimit="4" stroke-width="0.4267" d="M8.442 16.537l-0.147-0.14-2.205 2.088 7.767 7.41 16.318-15.567-2.19-2.089-14.128 13.465-5.416-5.167z"></path>
</symbol>



<symbol id="icon-twitter" viewBox="0 0 32 32"><path d="M32 6.078c-1.19.522-2.458.868-3.78 1.036a6.523 6.523 0 0 0 2.886-3.626 13.11 13.11 0 0 1-4.16 1.588A6.574 6.574 0 0 0 22.154 3c-3.632 0-6.556 2.948-6.556 6.562 0 .52.044 1.02.152 1.496-5.454-.266-10.28-2.88-13.522-6.862a6.605 6.605 0 0 0-.898 3.316 6.57 6.57 0 0 0 2.914 5.452 6.479 6.479 0 0 1-2.964-.808v.072c0 3.188 2.274 5.836 5.256 6.446a6.548 6.548 0 0 1-1.72.216 5.8 5.8 0 0 1-1.242-.112c.85 2.598 3.262 4.508 6.13 4.57a13.182 13.182 0 0 1-8.134 2.798c-.538 0-1.054-.024-1.57-.09A18.469 18.469 0 0 0 10.064 29c12.072 0 18.672-10 18.672-18.668 0-.29-.01-.57-.024-.848A13.087 13.087 0 0 0 32 6.078z"/></symbol></defs></svg>