<svg aria-hidden="true" style="position: absolute; width: 0; height: 0; overflow: hidden;" version="1.1" xmlns="http://www.w3.org/2000/svg" xmlns:xlink="http://www.w3.org/1999/xlink">
<defs>
<symbol id="icon-antenna" viewBox="0 0 32 32">
<path fill="#212121" style="fill: var(--color1, #212121)" d="M30.773 22.098l-8.443-8.505 0.937-4.615c0.242 0.094 0.499 0.144 0.758 0.146h0.006c1.192 0.014 2.17-0.941 2.184-2.133s-0.941-2.17-2.133-2.184c-1.192-0.014-2.17 0.941-2.184 2.133-0.003 0.255 0.039 0.509 0.125 0.749l-4.96 0.605-8.091-8.133c-0.099-0.101-0.235-0.159-0.377-0.16-0.14 0.001-0.274 0.056-0.373 0.155l-1.513 1.504c-0.208 0.208-0.208 0.546 0 0.754l0.814 0.826c-3.153 5.798-2.129 12.978 2.519 17.663 0.043 0.041 0.092 0.074 0.146 0.098-0.034 0.18-0.051 0.364-0.052 0.547v6.187h-6.4c-1.472 0.002-2.665 1.195-2.667 2.667v1.067c0 0.295 0.239 0.533 0.533 0.533h24.533c0.295 0 0.533-0.239 0.533-0.533v-1.067c-0.002-1.472-1.195-2.665-2.667-2.667h-6.4v-2.742c1.003 0.21 2.024 0.317 3.049 0.32 2.458-0.003 4.877-0.615 7.040-1.783l0.818 0.823c0.099 0.101 0.235 0.159 0.377 0.16 0.14-0.001 0.274-0.056 0.373-0.155l1.513-1.504c0.208-0.208 0.208-0.546 0-0.754zM23.28 6.233c0.418-0.415 1.093-0.414 1.508 0.004s0.414 1.093-0.004 1.508c-0.2 0.199-0.47 0.31-0.752 0.31h-0.003c-0.589-0.003-1.064-0.483-1.061-1.072 0.002-0.282 0.115-0.552 0.314-0.751h-0.002zM22.024 9.738l-0.598 2.946-1.175-1.182 1.774-1.763zM21.419 8.836l-1.92 1.909-1.485-1.493 3.405-0.415zM24.004 28.8c0.884 0 1.6 0.716 1.6 1.6v0.533h-23.467v-0.533c0-0.884 0.716-1.6 1.6-1.6h20.267zM16.537 26.667v1.067h-5.333v-1.067h5.333zM11.204 25.6v-4.053c0-1.294 1.196-2.347 2.667-2.347s2.667 1.053 2.667 2.347v4.053h-5.333zM17.604 23.904v-2.357c0-1.882-1.675-3.413-3.733-3.413-1.331-0.020-2.576 0.657-3.281 1.786-4.058-4.274-4.971-10.645-2.279-15.887l18.602 18.708c-2.872 1.461-6.165 1.873-9.309 1.163zM28.893 23.22l-21.057-21.181 0.755-0.752 7.935 7.98c0.004 0 0.006 0.007 0.010 0.010l13.115 13.191-0.757 0.752z"></path>
<path fill="#2196f3" style="fill: var(--color2, #2196f3)" d="M13.876 20.267h-0.005c-0.884-0.001-1.601 0.714-1.602 1.598s0.714 1.601 1.598 1.602h0.005c0.884 0.001 1.601-0.714 1.602-1.598s-0.714-1.601-1.598-1.602zM14.249 22.245c-0.1 0.1-0.236 0.156-0.378 0.155-0.295-0.002-0.532-0.242-0.531-0.536 0.001-0.141 0.057-0.276 0.157-0.375s0.233-0.154 0.373-0.155c0.295 0.002 0.532 0.241 0.53 0.536-0.001 0.141-0.057 0.276-0.157 0.375h0.005z"></path>
</symbol>
<symbol id="icon-astronaut" viewBox="0 0 32 32">
<path fill="#2196f3" style="fill: var(--color2, #2196f3)" d="M31.974 4.524c-0.063-0.193-0.229-0.333-0.43-0.363l-1.91-0.278-0.855-1.731c-0.179-0.365-0.777-0.365-0.956 0l-0.855 1.731-1.91 0.278c-0.201 0.029-0.367 0.17-0.431 0.363-0.062 0.193-0.011 0.405 0.135 0.547l1.383 1.348-0.326 1.903c-0.034 0.2 0.048 0.402 0.212 0.522 0.166 0.121 0.382 0.135 0.562 0.040l1.709-0.899 1.709 0.899c0.078 0.041 0.164 0.061 0.249 0.061 0.11 0 0.221-0.034 0.314-0.102 0.164-0.119 0.246-0.322 0.212-0.522l-0.326-1.903 1.383-1.348c0.145-0.142 0.197-0.354 0.135-0.547zM29.511 5.851c-0.125 0.122-0.183 0.299-0.153 0.472l0.191 1.114-1-0.526c-0.078-0.041-0.163-0.061-0.249-0.061s-0.17 0.020-0.249 0.061l-1.001 0.526 0.191-1.114c0.030-0.173-0.028-0.349-0.153-0.472l-0.81-0.789 1.119-0.163c0.174-0.025 0.324-0.134 0.402-0.292l0.5-1.013 0.5 1.013c0.078 0.157 0.228 0.267 0.402 0.292l1.119 0.163-0.809 0.789z"></path>
<path fill="#2196f3" style="fill: var(--color2, #2196f3)" d="M26.134 20.522h-1.067v1.067h1.067v-1.067z"></path>
<path fill="#2196f3" style="fill: var(--color2, #2196f3)" d="M26.134 22.656h-1.067v1.067h1.067v-1.067z"></path>
<path fill="#2196f3" style="fill: var(--color2, #2196f3)" d="M27.2 21.589h-1.067v1.067h1.067v-1.067z"></path>
<path fill="#2196f3" style="fill: var(--color2, #2196f3)" d="M25.067 21.589h-1.067v1.067h1.067v-1.067z"></path>
<path fill="#2196f3" style="fill: var(--color2, #2196f3)" d="M22.4 26.389h-1.067v1.067h1.067v-1.067z"></path>
<path fill="#2196f3" style="fill: var(--color2, #2196f3)" d="M22.4 28.522h-1.067v1.067h1.067v-1.067z"></path>
<path fill="#2196f3" style="fill: var(--color2, #2196f3)" d="M23.467 27.456h-1.067v1.067h1.067v-1.067z"></path>
<path fill="#2196f3" style="fill: var(--color2, #2196f3)" d="M21.333 27.456h-1.067v1.067h1.067v-1.067z"></path>
<path fill="#2196f3" style="fill: var(--color2, #2196f3)" d="M16 24.256h-1.067v1.067h1.067v-1.067z"></path>
<path fill="#2196f3" style="fill: var(--color2, #2196f3)" d="M16 26.389h-1.067v1.067h1.067v-1.067z"></path>
<path fill="#2196f3" style="fill: var(--color2, #2196f3)" d="M17.067 25.322h-1.067v1.067h1.067v-1.067z"></path>
<path fill="#2196f3" style="fill: var(--color2, #2196f3)" d="M14.933 25.322h-1.067v1.067h1.067v-1.067z"></path>
<path fill="#2196f3" style="fill: var(--color2, #2196f3)" d="M5.867 6.122h-1.067v1.067h1.067v-1.067z"></path>
<path fill="#2196f3" style="fill: var(--color2, #2196f3)" d="M5.867 8.255h-1.067v1.067h1.067v-1.067z"></path>
<path fill="#2196f3" style="fill: var(--color2, #2196f3)" d="M6.933 7.189h-1.067v1.067h1.067v-1.067z"></path>
<path fill="#2196f3" style="fill: var(--color2, #2196f3)" d="M4.8 7.189h-1.067v1.067h1.067v-1.067z"></path>
<path fill="#212121" style="fill: var(--color1, #212121)" d="M24.715 14.159c-0.287-0.388-0.709-0.637-1.188-0.705-0.481-0.068-0.956 0.058-1.34 0.352l-1.252 0.96-1.898 1.417-1.358-0.541c2.421-1.086 4.114-3.508 4.114-6.32 0-3.823-3.123-6.933-6.961-6.933s-6.961 3.11-6.961 6.933c0 1.386 0.414 2.674 1.12 3.758l-2.764-0.024c-0.002 0-0.003 0-0.005 0-0.009 0-0.015 0.004-0.023 0.005-0.053 0.002-0.105 0.013-0.155 0.031-0.013 0.005-0.026 0.008-0.038 0.013-0.006 0.003-0.013 0.003-0.019 0.006l-3.233 1.596c-0.001 0-0.001 0-0.001 0.001l-1.893 0.911c-0.021 0.009-0.042 0.021-0.063 0.035-0.755 0.502-1.012 1.489-0.598 2.295 0.22 0.429 0.595 0.745 1.056 0.889 0.178 0.055 0.359 0.083 0.539 0.083 0.29 0 0.577-0.071 0.839-0.211l1.388-0.738 2.264-1.169 1.357-0.008-5.442 5.416c-0.001 0.001-0.001 0.001-0.002 0.001l-1.339 1.333c-0.316 0.315-0.49 0.732-0.49 1.178s0.174 0.863 0.49 1.179c0.325 0.323 0.752 0.485 1.179 0.485s0.854-0.162 1.18-0.485l1.314-1.309 1.741-1.3 0.901 0.897-1.762 1.754c-0 0.001-0.001 0.001-0.002 0.001l-1.339 1.333c-0.316 0.315-0.49 0.732-0.49 1.178s0.174 0.863 0.49 1.179c0.325 0.323 0.753 0.485 1.18 0.485s0.855-0.162 1.18-0.485l3.482-3.467c0.001-0.001 0.001-0.001 0.001-0.002l1.010-1-0.004-0.004c0.006-0.006 0.015-0.009 0.022-0.015l5.166-5.658 3.471 0.494c0.025 0.004 0.050 0.005 0.075 0.005 0.065 0 0.127-0.015 0.187-0.038 0.018-0.006 0.033-0.015 0.050-0.023 0.019-0.010 0.039-0.015 0.058-0.027l3.213-2.133c0.012-0.008 0.018-0.021 0.029-0.029 0.013-0.010 0.029-0.014 0.041-0.026l1.271-1.191c0.662-0.62 0.753-1.635 0.212-2.362zM2.13 17.77c-0.173 0.093-0.37 0.111-0.558 0.052-0.187-0.058-0.338-0.186-0.427-0.358-0.161-0.314-0.068-0.695 0.214-0.902l1.314-0.632 0.449 1.312-0.992 0.528zM5.628 15.942l-1.548 0.8-0.439-1.283 2.027-1.001-0.040 1.484zM20.727 9.322c0 0.918-0.219 1.785-0.599 2.559l-4.181-1.899c-0.044-0.573-0.341-1.075-0.788-1.388l1.464-4.86c2.378 0.756 4.105 2.974 4.105 5.588zM8.938 9.322c0-3.235 2.644-5.867 5.894-5.867 0.253 0 0.5 0.021 0.745 0.052l-1.432 4.754c-0.019-0.001-0.037-0.006-0.057-0.006-1.033 0-1.873 0.837-1.873 1.867s0.84 1.867 1.873 1.867c0.694 0 1.294-0.383 1.618-0.945l3.862 1.755c-1.075 1.446-2.795 2.39-4.737 2.39-3.25 0-5.894-2.632-5.894-5.867zM14.894 10.122c0 0.441-0.362 0.8-0.806 0.8s-0.806-0.359-0.806-0.8c0-0.441 0.362-0.8 0.806-0.8s0.806 0.359 0.806 0.8zM2.465 25.146c-0.236 0.234-0.619 0.234-0.854 0.001-0.114-0.114-0.176-0.263-0.176-0.423s0.062-0.309 0.176-0.421l0.962-0.958 0.851 0.848-0.959 0.955zM5.679 28.88c-0.236 0.234-0.619 0.235-0.855 0.001-0.114-0.114-0.176-0.263-0.176-0.423s0.062-0.309 0.176-0.421l0.963-0.959 0.852 0.848-0.96 0.955zM9.16 25.411c-0.001 0-0.001 0-0.002 0.001l-1.765 1.76-0.852-0.848 1.763-1.755c0 0 0 0 0-0s0.001-0.001 0.002-0.001c0.040-0.040 0.065-0.088 0.090-0.135 0.007-0.014 0.020-0.026 0.026-0.040 0.017-0.041 0.019-0.085 0.026-0.129 0.003-0.025 0.014-0.047 0.014-0.073 0-0.036-0.013-0.070-0.020-0.106-0.006-0.032-0.006-0.065-0.019-0.095-0.020-0.050-0.055-0.094-0.091-0.138-0.010-0.012-0.014-0.027-0.025-0.038 0 0 0 0-0.001 0s-0.001-0.002-0.001-0.002l-1.607-1.6c-0.017-0.017-0.039-0.024-0.058-0.038-0.028-0.022-0.055-0.042-0.087-0.058-0.030-0.015-0.061-0.024-0.093-0.033-0.034-0.010-0.067-0.017-0.103-0.020-0.033-0.002-0.063 0.001-0.095 0.005-0.036 0.004-0.069 0.009-0.104 0.020-0.034 0.011-0.063 0.027-0.094 0.045-0.020 0.011-0.042 0.015-0.061 0.029l-1.773 1.324-0.901-0.897 2.399-2.386 4.361 4.289-0.928 0.919zM15.979 18.394c-0.015-0.002-0.030 0.004-0.045 0.003-0.039-0.002-0.076 0.001-0.115 0.007-0.030 0.005-0.059 0.011-0.088 0.021-0.034 0.012-0.065 0.028-0.097 0.047-0.030 0.018-0.057 0.037-0.083 0.061-0.013 0.011-0.028 0.017-0.040 0.029l-4.698 5.146-4.328-4.257 2.833-2.818c0.209-0.208 0.21-0.546 0.002-0.755-0.105-0.105-0.243-0.157-0.381-0.156v-0.001l-2.219 0.013 0.028-1.607 3.104 0.027c1.265 1.294 3.029 2.101 4.981 2.101 0.437 0 0.864-0.045 1.279-0.123 0.040 0.032 0.079 0.065 0.13 0.085l2.41 0.96 0.331 1.644-3.003-0.427zM20.020 18.572l-0.313-1.558 1.446-1.080 0.947 1.257-2.080 1.381zM23.774 15.741l-0.838 0.785-0.931-1.236 0.831-0.637c0.155-0.119 0.351-0.168 0.543-0.143 0.193 0.027 0.364 0.128 0.48 0.284 0.217 0.292 0.18 0.699-0.085 0.947z"></path>
<path fill="#212121" style="fill: var(--color1, #212121)" d="M13.602 18.544l-2.143-2.133c-0.207-0.207-0.545-0.207-0.753 0l-2.142 2.133c-0.1 0.101-0.157 0.236-0.157 0.378s0.056 0.278 0.157 0.378l2.142 2.133c0.104 0.103 0.241 0.155 0.377 0.155s0.273-0.052 0.376-0.155l2.143-2.133c0.1-0.1 0.157-0.236 0.157-0.378s-0.057-0.278-0.157-0.378zM11.083 20.303l-1.387-1.381 1.387-1.381 1.387 1.381-1.387 1.381z"></path>
<path fill="#212121" style="fill: var(--color1, #212121)" d="M17.164 5.071l-0.258 1.036c0.071 0.018 1.738 0.452 1.738 2.149h1.067c-0-2.017-1.666-2.965-2.547-3.185z"></path>
<path fill="#212121" style="fill: var(--color1, #212121)" d="M19.711 9.322h-1.067v1.067h1.067v-1.067z"></path>
</symbol>
<symbol id="icon-clock" viewBox="0 0 32 32">
<path fill="#212121" style="fill: var(--color1, #212121)" d="M31.297 15.301c-0.002-8.452-6.855-15.303-15.308-15.301s-15.303 6.855-15.301 15.308c0.001 6.658 4.307 12.551 10.649 14.576 0.061 0.019 0.124 0.029 0.187 0.029 0.121-0 0.239-0.032 0.342-0.094 0.135-0.080 0.236-0.207 0.283-0.356l3.865-12.25c1.057-0.005 1.909-0.866 1.903-1.923s-0.866-1.909-1.923-1.903c-0.284 0.001-0.565 0.067-0.82 0.191l-5.106-5.107c-0.253-0.245-0.657-0.238-0.902 0.016-0.239 0.247-0.239 0.639 0 0.886l5.103 5.109c-0.392 0.799-0.168 1.764 0.536 2.309l-3.683 11.673c-7.278-2.681-11.004-10.754-8.323-18.032s10.754-11.004 18.032-8.323 11.004 10.754 8.323 18.032c-1.31 3.556-4.001 6.431-7.462 7.973l-0.398-1.874c-0.073-0.344-0.411-0.565-0.756-0.492-0.109 0.023-0.209 0.074-0.292 0.148l-3.837 3.426c-0.263 0.234-0.287 0.637-0.052 0.9 0.076 0.085 0.174 0.149 0.283 0.184l4.899 1.563c0.335 0.108 0.694-0.077 0.802-0.412 0.034-0.106 0.040-0.219 0.017-0.328l-0.391-1.839c5.664-2.388 9.342-7.942 9.329-14.089zM15.992 14.664c0.352 0 0.638 0.286 0.638 0.638s-0.286 0.638-0.638 0.638c-0.352 0-0.638-0.285-0.638-0.638s0.285-0.638 0.638-0.638zM18.093 29.528l2.184-1.948 0.603 2.84-2.787-0.892z"></path>
<path fill="#2196f3" style="fill: var(--color2, #2196f3)" d="M15.354 3.185v1.275c0 0.352 0.285 0.638 0.638 0.638s0.638-0.285 0.638-0.638v-1.275c0-0.352-0.286-0.638-0.638-0.638s-0.638 0.286-0.638 0.638z"></path>
<path fill="#2196f3" style="fill: var(--color2, #2196f3)" d="M3.876 14.664c-0.352 0-0.638 0.286-0.638 0.638s0.285 0.638 0.638 0.638h1.275c0.352 0 0.638-0.285 0.638-0.638s-0.285-0.638-0.638-0.638h-1.275z"></path>
<path fill="#2196f3" style="fill: var(--color2, #2196f3)" d="M28.108 15.939c0.352 0 0.638-0.285 0.638-0.638s-0.285-0.638-0.638-0.638h-1.275c-0.352 0-0.638 0.286-0.638 0.638s0.286 0.638 0.638 0.638h1.275z"></path>
</symbol>
<symbol id="icon-diagram" viewBox="0 0 32 32">
<path fill="#2196f3" style="fill: var(--color2, #2196f3)" d="M14.926 14.965h1.066v4.798h-1.066v-4.797z"></path>
<path fill="#2196f3" style="fill: var(--color2, #2196f3)" d="M19.19 17.097h1.066v2.665h-1.066v-2.665z"></path>
<path fill="#2196f3" style="fill: var(--color2, #2196f3)" d="M10.661 18.696h1.066v1.066h-1.066v-1.066z"></path>
<path fill="#2196f3" style="fill: var(--color2, #2196f3)" d="M7.463 18.163h1.066v1.599h-1.066v-1.599z"></path>
<path fill="#212121" style="fill: var(--color1, #212121)" d="M1.599 28.291h25.587c0.883 0 1.599-0.716 1.599-1.599v-2.132c0-0.883-0.716-1.599-1.599-1.599h-0.533v-13.293l3.028-2.868c0.703 0.346 1.553 0.136 2.013-0.499s0.396-1.508-0.152-2.068-1.42-0.644-2.065-0.198c-0.644 0.446-0.873 1.292-0.542 2.002l-2.281 2.163v-1.23c0-0.883-0.716-1.599-1.599-1.599h-21.322c-0.883 0-1.599 0.716-1.599 1.599v15.992h-0.533c-0.883 0-1.599 0.716-1.599 1.599v2.132c0 0.883 0.716 1.599 1.599 1.599zM30.384 4.837c0.294 0 0.533 0.239 0.533 0.533s-0.239 0.533-0.533 0.533c-0.294 0-0.533-0.239-0.533-0.533s0.239-0.533 0.533-0.533zM3.198 6.969c0-0.294 0.239-0.533 0.533-0.533h21.322c0.294 0 0.533 0.239 0.533 0.533v2.239l-1.066 1.013v-2.186c0-0.294-0.239-0.533-0.533-0.533h-19.19c-0.294 0-0.533 0.239-0.533 0.533v13.326c0 0.294 0.239 0.533 0.533 0.533h19.19c0.294 0 0.533-0.239 0.533-0.533v-9.674l1.066-1.010v12.284h-22.388v-15.992zM7.996 13.899c-0.721-0.002-1.354 0.478-1.546 1.174s0.105 1.433 0.725 1.801c0.62 0.368 1.41 0.276 1.928-0.226l1.853 0.93c0.215 0.108 0.476 0.057 0.636-0.123l3.939-4.431 3.872 2.901c0.208 0.156 0.498 0.139 0.686-0.039l3.365-3.188v8.131h-18.124v-12.26h18.124v2.66l-3.771 3.572-3.904-2.927c-0.222-0.166-0.534-0.135-0.718 0.072l-3.993 4.493-1.493-0.746c0.011-0.064 0.018-0.129 0.020-0.193 0-0.883-0.716-1.599-1.599-1.599zM8.529 15.498c0 0.294-0.239 0.533-0.533 0.533s-0.533-0.239-0.533-0.533c0-0.294 0.239-0.533 0.533-0.533s0.533 0.239 0.533 0.533zM11.727 24.027h5.331v0.533c0 0.294-0.239 0.533-0.533 0.533h-4.264c-0.294 0-0.533-0.239-0.533-0.533v-0.533zM1.066 24.56c0-0.294 0.239-0.533 0.533-0.533h9.062v0.533c0 0.883 0.716 1.599 1.599 1.599h4.264c0.883 0 1.599-0.716 1.599-1.599v-0.533h9.062c0.294 0 0.533 0.239 0.533 0.533v2.132c0 0.294-0.239 0.533-0.533 0.533h-25.587c-0.294 0-0.533-0.239-0.533-0.533v-2.132z"></path>
</symbol>
<symbol id="icon-envelope" viewBox="0 0 43 32">
<path fill="#757575" style="fill: var(--color3, #757575)" d="M38.667 0h-34.667c-2.206 0-4 1.794-4 4v24c0 2.206 1.794 4 4 4h34.667c2.206 0 4-1.794 4-4v-24c0-2.206-1.794-4-4-4zM38.667 2.667c0.181 0 0.353 0.038 0.511 0.103l-17.844 15.466-17.844-15.466c0.158-0.066 0.33-0.103 0.511-0.103h34.667zM38.667 29.333h-34.667c-0.736 0-1.333-0.598-1.333-1.333v-22.413l17.793 15.421c0.251 0.217 0.563 0.326 0.874 0.326s0.622-0.108 0.874-0.326l17.793-15.421v22.413c0 0.736-0.598 1.333-1.333 1.333z"></path>
</symbol>
<symbol id="icon-facebook" viewBox="0 0 32 32">
<path fill="#afb1b8" style="fill: var(--color4, #afb1b8)" d="M21.329 5.313h2.921v-5.088c-0.504-0.069-2.237-0.225-4.256-0.225-4.212 0-7.097 2.649-7.097 7.519v4.481h-4.648v5.688h4.648v14.312h5.699v-14.311h4.46l0.708-5.688h-5.169v-3.919c0.001-1.644 0.444-2.769 2.735-2.769v0z"></path>
</symbol>
<symbol id="icon-instagram" viewBox="0 0 32 32">
<path fill="#afb1b8" style="fill: var(--color4, #afb1b8)" d="M31.969 9.408c-0.075-1.7-0.35-2.869-0.744-3.882-0.406-1.075-1.032-2.038-1.851-2.838-0.8-0.813-1.769-1.444-2.832-1.844-1.019-0.394-2.182-0.669-3.882-0.744-1.713-0.081-2.257-0.1-6.601-0.1s-4.888 0.019-6.595 0.094c-1.7 0.075-2.869 0.35-3.882 0.744-1.075 0.406-2.038 1.031-2.838 1.85-0.813 0.8-1.444 1.769-1.844 2.832-0.394 1.019-0.669 2.182-0.744 3.882-0.081 1.713-0.1 2.257-0.1 6.601s0.019 4.888 0.094 6.595c0.075 1.7 0.35 2.869 0.744 3.882 0.406 1.075 1.038 2.038 1.85 2.838 0.8 0.813 1.769 1.444 2.832 1.844 1.019 0.394 2.182 0.669 3.882 0.744 1.706 0.075 2.25 0.094 6.595 0.094s4.888-0.019 6.595-0.094c1.7-0.075 2.869-0.35 3.882-0.744 2.151-0.832 3.851-2.532 4.682-4.682 0.394-1.019 0.669-2.182 0.744-3.882 0.075-1.707 0.094-2.251 0.094-6.595s-0.006-4.888-0.081-6.595zM29.087 22.473c-0.069 1.563-0.331 2.407-0.55 2.969-0.538 1.394-1.644 2.5-3.038 3.038-0.563 0.219-1.413 0.481-2.969 0.55-1.688 0.075-2.194 0.094-6.464 0.094s-4.782-0.019-6.464-0.094c-1.563-0.069-2.407-0.331-2.969-0.55-0.694-0.256-1.325-0.663-1.838-1.194-0.531-0.519-0.938-1.144-1.194-1.838-0.219-0.563-0.481-1.413-0.55-2.969-0.075-1.688-0.094-2.194-0.094-6.464s0.019-4.782 0.094-6.464c0.069-1.563 0.331-2.407 0.55-2.969 0.256-0.694 0.663-1.325 1.2-1.838 0.519-0.531 1.144-0.938 1.838-1.194 0.563-0.219 1.413-0.481 2.969-0.55 1.688-0.075 2.194-0.094 6.464-0.094 4.276 0 4.782 0.019 6.464 0.094 1.563 0.069 2.407 0.331 2.969 0.55 0.694 0.256 1.325 0.662 1.838 1.194 0.531 0.519 0.938 1.144 1.194 1.838 0.219 0.563 0.481 1.413 0.55 2.969 0.075 1.688 0.094 2.194 0.094 6.464s-0.019 4.77-0.094 6.458z"></path>
<path fill="#afb1b8" style="fill: var(--color4, #afb1b8)" d="M16.059 7.783c-4.538 0-8.22 3.682-8.22 8.22s3.682 8.22 8.22 8.22c4.539 0 8.22-3.682 8.22-8.22s-3.682-8.22-8.22-8.22zM16.059 21.335c-2.944 0-5.332-2.388-5.332-5.332s2.388-5.332 5.332-5.332c2.944 0 5.332 2.388 5.332 5.332s-2.388 5.332-5.332 5.332z"></path>
<path fill="#afb1b8" style="fill: var(--color4, #afb1b8)" d="M26.524 7.458c0 1.060-0.859 1.919-1.919 1.919s-1.919-0.859-1.919-1.919c0-1.060 0.859-1.919 1.919-1.919s1.919 0.859 1.919 1.919z"></path>
</symbol>
<symbol id="icon-linkedin" viewBox="0 0 32 32">
<path fill="#afb1b8" style="fill: var(--color4, #afb1b8)" d="M31.992 32v-0.001h0.008v-11.736c0-5.741-1.236-10.164-7.948-10.164-3.227 0-5.392 1.771-6.276 3.449h-0.093v-2.913h-6.364v21.364h6.627v-10.579c0-2.785 0.528-5.479 3.977-5.479 3.399 0 3.449 3.179 3.449 5.657v10.401h6.62z"></path>
<path fill="#afb1b8" style="fill: var(--color4, #afb1b8)" d="M0.528 10.636h6.635v21.364h-6.635v-21.364z"></path>
<path fill="#afb1b8" style="fill: var(--color4, #afb1b8)" d="M3.843 0c-2.121 0-3.843 1.721-3.843 3.843s1.721 3.879 3.843 3.879c2.121 0 3.843-1.757 3.843-3.879-0.001-2.121-1.723-3.843-3.843-3.843v0z"></path>
</symbol>
<symbol id="icon-Logo-1" viewBox="0 0 56 32">
<path fill="#afb1b8" style="fill: var(--color4, #afb1b8)" d="M26.289 3.594h-0.072c-0.11-0.007-0.22-0.009-0.33-0.012v0h-0.239c-0.208 0-0.421 0.005-0.632 0.016-0.016-0.001-0.032-0.001-0.048 0-1.912 0.108-3.785 0.586-5.517 1.407l-0.227 0.109v11.615l0.531-0.18c0.466-0.16 0.962-0.304 1.476-0.438 1.388-0.356 2.814-0.546 4.247-0.564v1.526c-0.19 0.001-0.374 0.007-0.559 0.016h-0.044c-1.103 0.061-2.197 0.228-3.267 0.502-1.356 0.339-2.663 0.849-3.892 1.517v-14.897c1.276-0.744 2.651-1.304 4.083-1.661 1.258-0.325 2.55-0.491 3.849-0.496h0.224c0.268 0.007 0.53 0.019 0.775 0.037 0.647 0.045 1.288 0.148 1.918 0.305v1.502c-0.611-0.142-1.232-0.236-1.858-0.28-0.013-0.001-0.025-0.002-0.038-0.003-0.129-0.011-0.259-0.022-0.38-0.022zM28.933 5.13c0.333 0.025 0.678 0.037 1.027 0.037 1.365-0.005 2.724-0.179 4.046-0.519 1.355-0.341 2.662-0.851 3.891-1.518v14.631c-1.277 0.744-2.652 1.303-4.085 1.661-1.258 0.323-2.55 0.49-3.849 0.495-0.984 0.008-1.964-0.108-2.92-0.344v-14.726c0.226 0.052 0.458 0.1 0.694 0.14 0.387 0.065 0.796 0.113 1.194 0.143zM36.379 5.243l-0.531 0.179c-0.488 0.164-0.981 0.311-1.476 0.442-1.441 0.37-2.922 0.56-4.41 0.566-0.346 0-0.665-0.009-0.973-0.029l-0.423-0.028v11.949l0.364 0.032c0.337 0.029 0.685 0.044 1.035 0.044 1.172-0.005 2.338-0.156 3.473-0.45 0.934-0.234 1.843-0.561 2.714-0.975l0.227-0.109v-11.619z"></path>
<path fill="#afb1b8" style="fill: var(--color4, #afb1b8)" d="M18.747 24.199c-0.076-0.079-0.168-0.141-0.27-0.182s-0.211-0.060-0.321-0.056c-0.117-0.002-0.233 0.020-0.341 0.064-0.099 0.040-0.19 0.099-0.265 0.175s-0.133 0.167-0.171 0.267c-0.042 0.105-0.062 0.217-0.061 0.329v1.99c-0.005 0.14 0.022 0.28 0.078 0.408 0.047 0.102 0.115 0.193 0.199 0.267 0.080 0.067 0.173 0.115 0.273 0.141 0.097 0.027 0.197 0.041 0.297 0.041 0.111 0.001 0.221-0.023 0.321-0.069 0.099-0.044 0.19-0.106 0.265-0.184 0.074-0.077 0.133-0.168 0.174-0.267 0.043-0.1 0.064-0.208 0.064-0.317v-0.223h-0.52v0.177c0.002 0.061-0.009 0.121-0.031 0.177-0.017 0.042-0.043 0.081-0.076 0.112-0.032 0.026-0.069 0.046-0.109 0.057-0.035 0.012-0.072 0.018-0.109 0.019-0.046 0.005-0.093-0.002-0.136-0.020s-0.080-0.049-0.108-0.086c-0.049-0.080-0.073-0.173-0.069-0.267v-1.856c-0.003-0.103 0.019-0.205 0.064-0.297 0.027-0.042 0.065-0.076 0.11-0.097s0.095-0.029 0.145-0.023c0.045-0.002 0.089 0.008 0.13 0.027s0.076 0.049 0.102 0.085c0.058 0.076 0.089 0.171 0.086 0.267v0.172h0.515v-0.203c0.001-0.119-0.021-0.237-0.064-0.348-0.038-0.104-0.098-0.2-0.174-0.28z"></path>
<path fill="#afb1b8" style="fill: var(--color4, #afb1b8)" d="M21.838 24.176c-0.166-0.14-0.375-0.217-0.592-0.219-0.106 0-0.211 0.019-0.311 0.056-0.101 0.036-0.194 0.091-0.275 0.163-0.086 0.077-0.155 0.173-0.202 0.279-0.052 0.122-0.078 0.253-0.076 0.386v1.909c-0.004 0.134 0.022 0.268 0.076 0.391 0.047 0.103 0.116 0.194 0.202 0.267 0.080 0.074 0.173 0.131 0.275 0.168 0.099 0.037 0.205 0.056 0.311 0.056s0.211-0.019 0.311-0.056c0.104-0.038 0.199-0.095 0.281-0.168s0.15-0.165 0.196-0.267c0.053-0.123 0.079-0.257 0.076-0.391v-1.909c0.003-0.133-0.023-0.264-0.076-0.386-0.046-0.105-0.113-0.2-0.196-0.279zM21.595 26.75c0.004 0.051-0.003 0.102-0.021 0.15s-0.046 0.091-0.083 0.126c-0.069 0.058-0.155 0.089-0.245 0.089s-0.176-0.032-0.245-0.089c-0.037-0.035-0.065-0.078-0.083-0.126s-0.025-0.099-0.021-0.15v-1.909c-0.004-0.051 0.003-0.102 0.021-0.15s0.046-0.091 0.083-0.126c0.069-0.058 0.155-0.089 0.245-0.089s0.176 0.032 0.245 0.089c0.037 0.035 0.065 0.078 0.083 0.126s0.025 0.099 0.021 0.15v1.909z"></path>
<path fill="#afb1b8" style="fill: var(--color4, #afb1b8)" d="M25.898 27.602v-3.614h-0.5l-0.657 1.913h-0.009l-0.662-1.913h-0.495v3.614h0.516v-2.198h0.009l0.506 1.554h0.257l0.51-1.554h0.009v2.198h0.516z"></path>
<path fill="#afb1b8" style="fill: var(--color4, #afb1b8)" d="M28.83 24.242c-0.080-0.089-0.18-0.157-0.292-0.197-0.121-0.039-0.247-0.058-0.374-0.056h-0.767v3.614h0.515v-1.411h0.265c0.161 0.007 0.321-0.027 0.464-0.099 0.117-0.065 0.215-0.16 0.283-0.276 0.060-0.096 0.1-0.203 0.118-0.315 0.020-0.136 0.030-0.273 0.028-0.411 0.005-0.174-0.012-0.347-0.050-0.516-0.034-0.125-0.1-0.239-0.19-0.332zM28.565 25.344c-0.002 0.065-0.019 0.13-0.048 0.188-0.029 0.056-0.076 0.1-0.133 0.127-0.076 0.034-0.159 0.050-0.243 0.045h-0.235v-1.229h0.265c0.080-0.004 0.16 0.012 0.232 0.045 0.053 0.031 0.096 0.077 0.121 0.133 0.028 0.063 0.044 0.132 0.045 0.201 0 0.076 0 0.156 0 0.24s0.005 0.171 0 0.248h-0.005z"></path>
<path fill="#afb1b8" style="fill: var(--color4, #afb1b8)" d="M31.27 23.988h-0.422l-0.796 3.614h0.515l0.151-0.776h0.702l0.151 0.776h0.515l-0.816-3.614zM30.794 26.333l0.253-1.31h0.009l0.252 1.31h-0.515z"></path>
<path fill="#afb1b8" style="fill: var(--color4, #afb1b8)" d="M34.597 26.165h-0.009l-0.778-2.177h-0.495v3.614h0.515v-2.173h0.011l0.787 2.173h0.484v-3.614h-0.515v2.177z"></path>
<path fill="#afb1b8" style="fill: var(--color4, #afb1b8)" d="M37.743 23.988l-0.414 1.437h-0.011l-0.414-1.437h-0.545l0.707 2.086v1.527h0.515v-1.527l0.707-2.086h-0.545z"></path>
<path fill="#afb1b8" style="fill: var(--color4, #afb1b8)" d="M17.311 28.622h0.248v0.696h0.169v-0.696h0.247v-0.143h-0.664v0.143z"></path>
<path fill="#afb1b8" style="fill: var(--color4, #afb1b8)" d="M19.398 28.48l-0.325 0.839h0.179l0.069-0.191h0.334l0.072 0.191h0.183l-0.333-0.839h-0.179zM19.371 28.987l0.114-0.311 0.114 0.311h-0.228z"></path>
<path fill="#afb1b8" style="fill: var(--color4, #afb1b8)" d="M21.46 29.009h0.194v0.108c-0.057 0.045-0.127 0.070-0.199 0.071-0.034 0.002-0.068-0.004-0.099-0.018s-0.058-0.035-0.079-0.062c-0.044-0.064-0.066-0.141-0.062-0.219 0-0.187 0.081-0.28 0.242-0.28 0.042-0.004 0.085 0.007 0.119 0.031s0.060 0.061 0.070 0.102l0.166-0.032c-0.036-0.164-0.154-0.247-0.356-0.247-0.108-0.003-0.213 0.036-0.293 0.108-0.042 0.042-0.075 0.092-0.096 0.148s-0.029 0.115-0.025 0.175c-0.005 0.115 0.033 0.227 0.108 0.315 0.041 0.042 0.091 0.075 0.146 0.096s0.114 0.030 0.173 0.026c0.131 0.004 0.259-0.044 0.356-0.133v-0.331h-0.364v0.141z"></path>
<path fill="#afb1b8" style="fill: var(--color4, #afb1b8)" d="M23.566 28.48h-0.17v0.839h0.588v-0.143h-0.418v-0.696z"></path>
<path fill="#afb1b8" style="fill: var(--color4, #afb1b8)" d="M25.347 28.48h-0.17v0.839h0.17v-0.839z"></path>
<path fill="#afb1b8" style="fill: var(--color4, #afb1b8)" d="M27.088 29.040l-0.344-0.56h-0.165v0.839h0.158v-0.548l0.337 0.548h0.169v-0.839h-0.155v0.56z"></path>
<path fill="#afb1b8" style="fill: var(--color4, #afb1b8)" d="M28.662 28.949h0.418v-0.143h-0.418v-0.184h0.45v-0.143h-0.62v0.839h0.637v-0.143h-0.467v-0.227z"></path>
<path fill="#afb1b8" style="fill: var(--color4, #afb1b8)" d="M32.479 28.811h-0.33v-0.331h-0.169v0.839h0.169v-0.367h0.33v0.367h0.169v-0.839h-0.169v0.331z"></path>
<path fill="#afb1b8" style="fill: var(--color4, #afb1b8)" d="M34.062 28.949h0.419v-0.143h-0.419v-0.184h0.451v-0.143h-0.62v0.839h0.636v-0.143h-0.467v-0.227z"></path>
<path fill="#afb1b8" style="fill: var(--color4, #afb1b8)" d="M36.209 28.949c0.146-0.023 0.22-0.1 0.22-0.233 0.004-0.036-0.001-0.072-0.016-0.105s-0.038-0.061-0.067-0.082c-0.076-0.038-0.161-0.055-0.245-0.049h-0.356v0.839h0.169v-0.351h0.033c0.036-0.002 0.072 0.004 0.105 0.019 0.025 0.015 0.045 0.036 0.060 0.061l0.183 0.267h0.202l-0.102-0.164c-0.045-0.081-0.109-0.15-0.186-0.201zM36.039 28.833h-0.125v-0.211h0.133c0.058-0.005 0.116 0.002 0.171 0.020 0.012 0.011 0.022 0.024 0.028 0.039s0.009 0.031 0.009 0.048c-0.001 0.016-0.005 0.032-0.013 0.047s-0.019 0.027-0.032 0.037c-0.055 0.017-0.113 0.024-0.171 0.020z"></path>
<path fill="#afb1b8" style="fill: var(--color4, #afb1b8)" d="M37.828 28.949h0.418v-0.143h-0.418v-0.184h0.451v-0.143h-0.621v0.839h0.637v-0.143h-0.467v-0.227z"></path>
</symbol>
<symbol id="icon-Logo-2" viewBox="0 0 56 32">
<path fill="#afb1b8" style="fill: var(--color4, #afb1b8)" d="M19.098 26.239c0.008 0 0.017 0.002 0.024 0.005s0.014 0.007 0.020 0.013l0.114 0.109c-0.089 0.088-0.199 0.159-0.322 0.208-0.144 0.053-0.3 0.078-0.456 0.075-0.147 0.003-0.293-0.021-0.429-0.070-0.123-0.045-0.233-0.112-0.323-0.196-0.092-0.088-0.163-0.191-0.209-0.303-0.050-0.125-0.075-0.257-0.073-0.389-0.002-0.133 0.025-0.266 0.079-0.39 0.050-0.113 0.125-0.216 0.222-0.303 0.098-0.086 0.215-0.153 0.343-0.198 0.141-0.047 0.291-0.071 0.442-0.070 0.14-0.003 0.28 0.019 0.41 0.063 0.113 0.043 0.217 0.102 0.308 0.175l-0.096 0.117c-0.007 0.008-0.015 0.015-0.024 0.021-0.011 0.007-0.025 0.010-0.039 0.009-0.015-0.001-0.029-0.005-0.041-0.012l-0.052-0.031-0.072-0.040c-0.031-0.015-0.063-0.028-0.096-0.038-0.042-0.013-0.086-0.024-0.13-0.031-0.056-0.009-0.113-0.013-0.17-0.012-0.109-0.001-0.217 0.017-0.318 0.052-0.094 0.033-0.179 0.083-0.249 0.147-0.071 0.068-0.126 0.147-0.162 0.234-0.040 0.099-0.060 0.203-0.059 0.308-0.002 0.107 0.018 0.213 0.059 0.313 0.035 0.086 0.089 0.165 0.159 0.232 0.066 0.063 0.147 0.112 0.237 0.144 0.093 0.034 0.194 0.051 0.295 0.050 0.058 0.001 0.117-0.003 0.174-0.010 0.094-0.010 0.185-0.038 0.265-0.083 0.040-0.023 0.078-0.049 0.113-0.077 0.015-0.012 0.034-0.019 0.054-0.020z"></path>
<path fill="#afb1b8" style="fill: var(--color4, #afb1b8)" d="M22.402 25.69c0.002 0.132-0.024 0.263-0.077 0.387-0.047 0.112-0.12 0.214-0.215 0.3s-0.211 0.153-0.338 0.197c-0.28 0.093-0.59 0.093-0.87 0-0.127-0.045-0.241-0.112-0.336-0.198-0.095-0.087-0.169-0.19-0.217-0.303-0.103-0.25-0.103-0.524 0-0.774 0.049-0.113 0.123-0.216 0.217-0.305 0.096-0.083 0.21-0.147 0.336-0.19 0.28-0.094 0.59-0.094 0.87 0 0.127 0.045 0.242 0.112 0.338 0.198 0.094 0.086 0.168 0.188 0.216 0.3 0.053 0.124 0.079 0.256 0.077 0.389zM22.102 25.69c0.002-0.105-0.016-0.211-0.054-0.311-0.032-0.086-0.084-0.165-0.153-0.232-0.067-0.064-0.15-0.114-0.242-0.147-0.203-0.068-0.429-0.068-0.632 0-0.092 0.033-0.175 0.083-0.242 0.147-0.070 0.067-0.122 0.146-0.154 0.232-0.073 0.202-0.073 0.419 0 0.621 0.032 0.086 0.085 0.165 0.154 0.232 0.067 0.063 0.15 0.113 0.242 0.145 0.204 0.066 0.428 0.066 0.632 0 0.092-0.032 0.175-0.082 0.242-0.145 0.069-0.068 0.121-0.147 0.153-0.232 0.038-0.1 0.057-0.205 0.054-0.311z"></path>
<path fill="#afb1b8" style="fill: var(--color4, #afb1b8)" d="M24.656 26.015l0.030 0.070c0.011-0.025 0.021-0.047 0.033-0.070 0.011-0.023 0.023-0.046 0.037-0.068l0.731-1.154c0.014-0.020 0.027-0.032 0.041-0.036 0.019-0.005 0.040-0.007 0.060-0.006h0.216v1.878h-0.256v-1.381c0-0.017 0-0.037 0-0.058-0.001-0.022-0.001-0.043 0-0.065l-0.735 1.171c-0.009 0.018-0.024 0.032-0.043 0.043s-0.041 0.016-0.063 0.016h-0.041c-0.022 0-0.044-0.005-0.063-0.015s-0.034-0.025-0.043-0.043l-0.757-1.178c0 0.022 0 0.045 0 0.067s0 0.042 0 0.060v1.381h-0.247v-1.874h0.216c0.020-0.001 0.041 0.001 0.060 0.006 0.018 0.008 0.032 0.020 0.040 0.036l0.747 1.156c0.015 0.021 0.027 0.044 0.037 0.067z"></path>
<path fill="#afb1b8" style="fill: var(--color4, #afb1b8)" d="M27.407 25.922v0.703h-0.286v-1.875h0.638c0.12-0.002 0.24 0.012 0.356 0.041 0.093 0.023 0.178 0.063 0.252 0.117 0.064 0.051 0.113 0.114 0.143 0.184 0.034 0.076 0.050 0.158 0.049 0.24 0.001 0.082-0.017 0.164-0.053 0.24-0.034 0.072-0.087 0.136-0.154 0.188-0.073 0.056-0.16 0.099-0.253 0.124-0.111 0.031-0.228 0.046-0.345 0.044l-0.346-0.005zM27.407 25.721h0.346c0.075 0.001 0.15-0.009 0.222-0.029 0.059-0.017 0.114-0.045 0.16-0.081 0.043-0.034 0.076-0.077 0.097-0.124 0.023-0.050 0.035-0.104 0.034-0.158 0.003-0.052-0.006-0.104-0.029-0.153s-0.056-0.092-0.1-0.128c-0.109-0.074-0.247-0.11-0.385-0.101h-0.346v0.773z"></path>
<path fill="#afb1b8" style="fill: var(--color4, #afb1b8)" d="M31.251 26.628h-0.226c-0.023 0.001-0.045-0.005-0.063-0.017-0.016-0.012-0.029-0.027-0.037-0.044l-0.195-0.454h-0.977l-0.202 0.454c-0.007 0.017-0.020 0.031-0.036 0.042-0.018 0.013-0.041 0.019-0.064 0.019h-0.226l0.858-1.878h0.297l0.87 1.878zM29.835 25.931h0.807l-0.34-0.764c-0.026-0.058-0.047-0.116-0.064-0.176l-0.033 0.098c-0.010 0.030-0.021 0.057-0.031 0.080l-0.338 0.763z"></path>
<path fill="#afb1b8" style="fill: var(--color4, #afb1b8)" d="M32.487 24.759c0.017 0.008 0.032 0.020 0.043 0.034l1.252 1.416c0-0.022 0-0.045 0-0.066s0-0.042 0-0.062v-1.33h0.256v1.878h-0.143c-0.020 0.001-0.041-0.003-0.059-0.011-0.018-0.009-0.033-0.021-0.046-0.035l-1.25-1.414c0.001 0.021 0.001 0.043 0 0.065 0 0.021 0 0.040 0 0.057v1.338h-0.256v-1.878h0.152c0.018-0 0.035 0.003 0.051 0.009z"></path>
<path fill="#afb1b8" style="fill: var(--color4, #afb1b8)" d="M36.146 25.881v0.746h-0.286v-0.746l-0.791-1.131h0.256c0.022-0.001 0.044 0.005 0.062 0.016 0.016 0.012 0.029 0.026 0.039 0.042l0.495 0.73c0.020 0.031 0.037 0.060 0.051 0.087s0.026 0.053 0.036 0.080l0.037-0.081c0.014-0.030 0.030-0.058 0.049-0.086l0.488-0.734c0.010-0.015 0.023-0.028 0.037-0.040 0.017-0.013 0.039-0.020 0.061-0.019h0.259l-0.792 1.136z"></path>
<path fill="#afb1b8" style="fill: var(--color4, #afb1b8)" d="M24.515 21.599c0.124 0.014 0.25 0.025 0.378 0.035 1.93-0.75 3.563-1.978 4.694-3.53s1.711-3.359 1.667-5.195l-2.127-1.848c0.432 1.955 0.23 3.977-0.584 5.838s-2.209 3.489-4.027 4.7z"></path>
<path fill="#afb1b8" style="fill: var(--color4, #afb1b8)" d="M23.755 21.513l0.057 0.010c1.943-1.207 3.424-2.894 4.253-4.841s0.965-4.065 0.393-6.080l-3.029-2.632c1.225 2.163 1.718 4.585 1.422 6.982s-1.37 4.672-3.096 6.561z"></path>
<path fill="#afb1b8" style="fill: var(--color4, #afb1b8)" d="M34.029 15.079c-0.515 2.018-1.765 3.838-3.564 5.189-0.526 0.397-1.093 0.751-1.693 1.056 1.465-0.374 2.812-1.036 3.937-1.934s1.997-2.008 2.549-3.246l-1.229-1.066z"></path>
<path fill="#afb1b8" style="fill: var(--color4, #afb1b8)" d="M33.547 14.781l-1.749-1.52c-0.033 1.733-0.6 3.426-1.642 4.904s-2.52 2.687-4.281 3.5h0.009c0.392-0 0.785-0.020 1.174-0.061 1.646-0.584 3.1-1.512 4.232-2.703s1.908-2.606 2.257-4.121z"></path>
<path fill="#afb1b8" style="fill: var(--color4, #afb1b8)" d="M24.009 6.861l-2.087-1.816c-1.866 0.626-3.47 1.727-4.603 3.159s-1.743 3.127-1.749 4.865v0c0.007 1.92 0.751 3.783 2.114 5.295s3.267 2.585 5.411 3.050c1.914-2.026 3.035-4.529 3.199-7.147s-0.636-5.212-2.285-7.407z"></path>
<path fill="#afb1b8" style="fill: var(--color4, #afb1b8)" d="M38.369 14.502c-0.008-2.278-1.052-4.461-2.906-6.072s-4.366-2.519-6.988-2.525c-1.212-0.001-2.413 0.193-3.543 0.573l12.777 11.101c0.437-0.981 0.661-2.025 0.661-3.077z"></path>
</symbol>
<symbol id="icon-Logo-3" viewBox="0 0 56 32">
<path fill="#2196f3" style="fill: var(--color2, #2196f3)" d="M12.667 11.551h-0.002c-1.258 0-2.278 0.906-2.278 2.024v0.001c0 1.118 1.020 2.024 2.278 2.024h0.002c1.258 0 2.278-0.906 2.278-2.024v-0.001c0-1.118-1.020-2.024-2.278-2.024z"></path>
<path fill="#2196f3" style="fill: var(--color2, #2196f3)" d="M29.479 10.904c-0.004-1.553-0.699-3.041-1.934-4.139s-2.91-1.717-4.657-1.72v0c-1.748 0.003-3.423 0.621-4.659 1.719s-1.932 2.587-1.936 4.14v0 8.563c0 0 13.185-1.305 13.186-8.561v-0.001z"></path>
<path fill="#2196f3" style="fill: var(--color2, #2196f3)" d="M5.771 22.277c0.003 1.080 0.487 2.116 1.347 2.88s2.024 1.195 3.24 1.198v0c1.215-0.003 2.38-0.434 3.24-1.197s1.344-1.799 1.348-2.879v0-5.958c0 0-9.174 0.909-9.174 5.957zM10.358 23.345c-0.238 0-0.47-0.063-0.667-0.18s-0.351-0.284-0.442-0.479c-0.091-0.195-0.115-0.41-0.068-0.617s0.161-0.397 0.329-0.547c0.168-0.149 0.382-0.251 0.615-0.292s0.475-0.020 0.694 0.061c0.22 0.081 0.407 0.218 0.539 0.393s0.202 0.382 0.202 0.593c0.001 0.14-0.030 0.28-0.090 0.41s-0.149 0.248-0.26 0.348c-0.112 0.1-0.244 0.179-0.39 0.232s-0.303 0.082-0.461 0.082v-0.004z"></path>
<path fill="#2196f3" style="fill: var(--color2, #2196f3)" d="M19.629 22.757h-0.885v0.914h-0.461v-2.238h1.457v0.373h-0.996v0.578h0.885v0.372zM21.845 22.603c0 0.22-0.039 0.413-0.117 0.579s-0.19 0.294-0.335 0.384c-0.144 0.090-0.31 0.135-0.498 0.135-0.185 0-0.351-0.045-0.496-0.134s-0.258-0.216-0.338-0.381c-0.080-0.166-0.12-0.357-0.121-0.572v-0.111c0-0.22 0.039-0.414 0.118-0.581 0.080-0.168 0.192-0.297 0.337-0.386 0.146-0.090 0.311-0.135 0.498-0.135s0.352 0.045 0.496 0.135c0.145 0.089 0.258 0.218 0.337 0.386 0.080 0.167 0.12 0.36 0.12 0.579v0.1zM21.378 22.502c0-0.235-0.042-0.413-0.126-0.535s-0.204-0.183-0.36-0.183c-0.155 0-0.274 0.061-0.358 0.181s-0.127 0.296-0.128 0.529v0.109c0 0.228 0.042 0.406 0.126 0.532s0.205 0.189 0.363 0.189c0.155 0 0.274-0.060 0.357-0.181s0.125-0.299 0.126-0.532v-0.109zM23.341 23.084c0-0.087-0.031-0.154-0.092-0.2s-0.172-0.096-0.332-0.148c-0.16-0.052-0.286-0.104-0.38-0.154-0.254-0.137-0.381-0.322-0.381-0.555 0-0.121 0.034-0.229 0.101-0.323 0.069-0.095 0.166-0.17 0.294-0.223s0.272-0.080 0.43-0.080c0.16 0 0.302 0.029 0.427 0.088 0.125 0.057 0.222 0.139 0.29 0.244s0.105 0.225 0.105 0.36h-0.461c0-0.102-0.032-0.182-0.097-0.238s-0.155-0.086-0.272-0.086c-0.113 0-0.2 0.024-0.263 0.072-0.063 0.047-0.094 0.11-0.094 0.188 0 0.073 0.036 0.134 0.109 0.183s0.182 0.095 0.324 0.138c0.262 0.079 0.453 0.177 0.573 0.294s0.18 0.262 0.18 0.436c0 0.194-0.073 0.346-0.22 0.456s-0.344 0.164-0.592 0.164c-0.172 0-0.329-0.031-0.47-0.094-0.141-0.064-0.25-0.15-0.324-0.26s-0.111-0.237-0.111-0.381h0.463c0 0.247 0.148 0.37 0.443 0.37 0.11 0 0.195-0.022 0.257-0.066 0.061-0.045 0.092-0.108 0.092-0.188zM25.801 21.807h-0.685v1.864h-0.461v-1.864h-0.676v-0.373h1.823v0.373zM27.412 22.702h-0.885v0.599h1.039v0.37h-1.5v-2.238h1.497v0.373h-1.036v0.533h0.885v0.361zM28.664 22.852h-0.367v0.819h-0.461v-2.238h0.831c0.264 0 0.468 0.059 0.612 0.177s0.215 0.284 0.215 0.499c0 0.153-0.033 0.28-0.1 0.383-0.066 0.101-0.165 0.182-0.3 0.243l0.484 0.914v0.021h-0.495l-0.42-0.819zM28.297 22.479h0.372c0.116 0 0.205-0.029 0.269-0.088 0.064-0.059 0.095-0.141 0.095-0.244 0-0.106-0.030-0.189-0.091-0.249s-0.151-0.091-0.275-0.091h-0.37v0.672zM31.091 22.883v0.788h-0.461v-2.238h0.873c0.168 0 0.316 0.031 0.443 0.092 0.128 0.061 0.226 0.149 0.295 0.263 0.069 0.113 0.103 0.241 0.103 0.386 0 0.219-0.075 0.392-0.226 0.519s-0.357 0.189-0.622 0.189h-0.404zM31.091 22.51h0.412c0.122 0 0.215-0.029 0.278-0.086 0.065-0.057 0.097-0.139 0.097-0.246 0-0.11-0.032-0.198-0.097-0.266s-0.154-0.102-0.267-0.105h-0.423v0.702zM34.008 22.702h-0.885v0.599h1.039v0.37h-1.5v-2.238h1.497v0.373h-1.036v0.533h0.885v0.361zM36.147 21.807h-0.685v1.864h-0.461v-1.864h-0.676v-0.373h1.823v0.373zM37.758 22.702h-0.885v0.599h1.039v0.37h-1.5v-2.238h1.497v0.373h-1.036v0.533h0.885v0.361zM39.011 22.852h-0.367v0.819h-0.461v-2.238h0.831c0.264 0 0.468 0.059 0.612 0.177s0.215 0.284 0.215 0.499c0 0.153-0.033 0.28-0.1 0.383s-0.166 0.182-0.3 0.243l0.484 0.914v0.021h-0.495l-0.42-0.819zM38.643 22.479h0.372c0.116 0 0.205-0.029 0.269-0.088 0.064-0.059 0.095-0.141 0.095-0.244 0-0.106-0.030-0.189-0.091-0.249-0.059-0.060-0.151-0.091-0.275-0.091h-0.37v0.672zM41.353 23.084c0-0.087-0.031-0.154-0.092-0.2s-0.172-0.096-0.332-0.148c-0.16-0.052-0.286-0.104-0.38-0.154-0.254-0.137-0.381-0.322-0.381-0.555 0-0.121 0.034-0.229 0.101-0.323s0.166-0.17 0.294-0.223c0.128-0.053 0.272-0.080 0.43-0.080 0.16 0 0.302 0.029 0.427 0.088 0.125 0.057 0.222 0.139 0.29 0.244 0.070 0.106 0.105 0.225 0.105 0.36h-0.461c0-0.102-0.032-0.182-0.097-0.238s-0.155-0.086-0.272-0.086c-0.113 0-0.2 0.024-0.263 0.072-0.062 0.047-0.094 0.11-0.094 0.188 0 0.073 0.036 0.134 0.109 0.183s0.182 0.095 0.324 0.138c0.262 0.079 0.453 0.177 0.573 0.294s0.18 0.262 0.18 0.436c0 0.194-0.073 0.346-0.22 0.456s-0.344 0.164-0.592 0.164c-0.172 0-0.329-0.031-0.47-0.094-0.141-0.064-0.249-0.15-0.324-0.26-0.074-0.11-0.111-0.237-0.111-0.381h0.463c0 0.247 0.148 0.37 0.443 0.37 0.11 0 0.195-0.022 0.257-0.066 0.061-0.045 0.092-0.108 0.092-0.188z"></path>
</symbol>
<symbol id="icon-Logo-4" viewBox="0 0 56 32">
<path fill="#afb1b8" style="fill: var(--color4, #afb1b8)" d="M14.036 23.949c0.128 0.145 0.196 0.326 0.192 0.513 0.007 0.121-0.017 0.243-0.069 0.355s-0.13 0.212-0.23 0.293c-0.248 0.172-0.556 0.256-0.866 0.236h-1.523v-3.248h1.492c0.295-0.018 0.587 0.058 0.827 0.216 0.096 0.074 0.173 0.167 0.223 0.273s0.073 0.22 0.067 0.335c0.009 0.179-0.053 0.355-0.173 0.497-0.116 0.129-0.276 0.218-0.454 0.254 0.202 0.034 0.384 0.132 0.515 0.278v0zM12.25 23.458h0.638c0.145 0.010 0.289-0.029 0.405-0.108 0.048-0.040 0.085-0.089 0.109-0.144s0.033-0.114 0.028-0.173c0.005-0.059-0.005-0.118-0.029-0.173s-0.060-0.104-0.107-0.145c-0.12-0.082-0.268-0.121-0.418-0.109h-0.627v0.852zM13.355 24.704c0.051-0.041 0.091-0.092 0.118-0.149s0.037-0.119 0.033-0.181c0.004-0.063-0.008-0.125-0.035-0.183s-0.068-0.109-0.12-0.15c-0.125-0.085-0.278-0.126-0.433-0.117h-0.669v0.893h0.678c0.152 0.008 0.303-0.032 0.428-0.113v0z"></path>
<path fill="#afb1b8" style="fill: var(--color4, #afb1b8)" d="M17.086 25.345l-0.83-1.269h-0.312v1.269h-0.714v-3.248h1.352c0.341-0.022 0.678 0.077 0.941 0.276 0.189 0.176 0.303 0.409 0.321 0.655s-0.060 0.491-0.221 0.689c-0.167 0.175-0.395 0.292-0.645 0.33l0.884 1.298h-0.776zM15.944 23.633h0.584c0.405 0 0.608-0.164 0.608-0.492 0.004-0.067-0.007-0.134-0.033-0.197s-0.065-0.12-0.116-0.168c-0.128-0.098-0.293-0.145-0.459-0.132h-0.591l0.007 0.988z"></path>
<path fill="#afb1b8" style="fill: var(--color4, #afb1b8)" d="M20.989 24.691h-1.423l-0.251 0.654h-0.749l1.307-3.212h0.809l1.301 3.212h-0.749l-0.246-0.654zM20.798 24.199l-0.52-1.371-0.52 1.371h1.040z"></path>
<path fill="#afb1b8" style="fill: var(--color4, #afb1b8)" d="M25.874 25.345h-0.709l-1.589-2.209v2.209h-0.707v-3.248h0.707l1.589 2.221v-2.221h0.709v3.248z"></path>
<path fill="#afb1b8" style="fill: var(--color4, #afb1b8)" d="M29.919 24.568c-0.147 0.245-0.37 0.445-0.641 0.573-0.308 0.143-0.651 0.213-0.996 0.205h-1.262v-3.248h1.262c0.345-0.008 0.687 0.060 0.996 0.2 0.271 0.125 0.495 0.323 0.641 0.566 0.146 0.264 0.222 0.556 0.222 0.852s-0.076 0.588-0.222 0.852v0zM29.108 24.49c0.202-0.216 0.314-0.491 0.314-0.775s-0.111-0.559-0.314-0.775c-0.244-0.195-0.563-0.295-0.887-0.276h-0.492v2.102h0.492c0.324 0.019 0.643-0.081 0.887-0.276z"></path>
<path fill="#afb1b8" style="fill: var(--color4, #afb1b8)" d="M21.433 4.031c0 0 9.148 3.162 8.954 7.738v7.74c0 0-9.141-3.164-8.951-7.74l-0.003-7.738z"></path>
<path fill="#afb1b8" style="fill: var(--color4, #afb1b8)" d="M38.537 17.697c1.728-1.089 3.726-1.763 5.812-1.961v-2.423c-2.404 0.848-4.443 2.386-5.812 4.384v0z"></path>
<path fill="#afb1b8" style="fill: var(--color4, #afb1b8)" d="M37.499 18.427c1.414-2.607 3.866-4.619 6.85-5.622v-6.981c0 0-13.028 4.505-12.753 11.021v11.020c0 0 0.581-0.201 1.494-0.579 0-0.352 0-0.708 0.042-1.065 0.27-3.025 1.84-5.829 4.367-7.794v0z"></path>
<path fill="#afb1b8" style="fill: var(--color4, #afb1b8)" d="M36.26 22.521c0.068-0.764 0.221-1.52 0.456-2.256-1.573 1.697-2.526 3.803-2.724 6.022-0.019 0.209-0.029 0.419-0.035 0.635 0.74-0.325 1.601-0.732 2.506-1.209-0.231-1.050-0.299-2.124-0.203-3.191v0z"></path>
<path fill="#afb1b8" style="fill: var(--color4, #afb1b8)" d="M36.778 22.56c-0.087 0.965-0.033 1.937 0.161 2.889 3.559-1.95 7.559-4.963 7.405-8.605v-0.317c-2.543 0.261-4.922 1.278-6.772 2.897-0.433 1.003-0.701 2.060-0.794 3.135v0z"></path>
</symbol>
<symbol id="icon-Logo-5" viewBox="0 0 56 32">
<path fill="#afb1b8" style="fill: var(--color4, #afb1b8)" d="M28.026 14.859c-0.232-0.309-0.344-0.675-0.317-1.043v-1.512c0-0.464 0.105-0.816 0.315-1.057s0.572-0.361 1.084-0.36c0.481 0 0.823 0.103 1.025 0.308 0.22 0.262 0.328 0.582 0.303 0.905v0.355h-0.861v-0.36c0.003-0.118-0.005-0.236-0.025-0.352-0.012-0.080-0.056-0.154-0.123-0.209-0.088-0.060-0.2-0.089-0.312-0.082-0.118-0.008-0.235 0.023-0.328 0.086-0.075 0.062-0.125 0.143-0.143 0.231-0.025 0.123-0.036 0.249-0.034 0.374v1.836c-0.014 0.177 0.024 0.354 0.11 0.515 0.043 0.055 0.102 0.098 0.172 0.125s0.146 0.037 0.222 0.029c0.11 0.008 0.22-0.022 0.305-0.083 0.070-0.060 0.115-0.139 0.128-0.223 0.020-0.122 0.029-0.245 0.027-0.368v-0.372h0.861v0.34c0.024 0.337-0.080 0.671-0.298 0.951-0.198 0.225-0.535 0.337-1.030 0.337s-0.87-0.12-1.082-0.369z"></path>
<path fill="#afb1b8" style="fill: var(--color4, #afb1b8)" d="M31.61 14.875c-0.217-0.235-0.326-0.579-0.326-1.032v-1.591c0-0.449 0.109-0.789 0.326-1.020s0.581-0.346 1.091-0.345c0.506 0 0.868 0.115 1.085 0.345s0.328 0.571 0.328 1.020v1.591c0 0.449-0.11 0.794-0.331 1.031s-0.581 0.355-1.082 0.355c-0.501 0-0.871-0.12-1.091-0.354zM33.102 14.493c0.078-0.147 0.113-0.309 0.103-0.471v-1.948c0.010-0.159-0.025-0.317-0.102-0.462-0.044-0.056-0.105-0.1-0.176-0.127s-0.15-0.037-0.227-0.027c-0.077-0.009-0.156 0-0.228 0.027s-0.133 0.071-0.177 0.127c-0.078 0.144-0.114 0.303-0.103 0.462v1.957c-0.011 0.162 0.025 0.324 0.103 0.471 0.050 0.050 0.112 0.089 0.182 0.117s0.145 0.041 0.221 0.041c0.076 0 0.152-0.014 0.221-0.041s0.131-0.067 0.182-0.117v-0.009z"></path>
<path fill="#afb1b8" style="fill: var(--color4, #afb1b8)" d="M35.149 10.933h0.927l0.697 2.935 0.713-2.935h0.902l0.091 4.237h-0.667l-0.071-2.945-0.688 2.945h-0.535l-0.713-2.955-0.066 2.955h-0.674l0.084-4.237z"></path>
<path fill="#afb1b8" style="fill: var(--color4, #afb1b8)" d="M39.517 10.933h1.444c0.832 0 1.247 0.401 1.247 1.203 0 0.768-0.438 1.152-1.313 1.151h-0.492v1.883h-0.891l0.005-4.237zM40.751 12.744c0.088 0.010 0.177 0.003 0.262-0.020s0.162-0.062 0.228-0.113c0.102-0.143 0.147-0.311 0.128-0.478 0.005-0.129-0.010-0.259-0.043-0.385-0.013-0.042-0.035-0.082-0.066-0.116s-0.069-0.064-0.113-0.085c-0.124-0.051-0.26-0.075-0.397-0.068h-0.346v1.266h0.346z"></path>
<path fill="#afb1b8" style="fill: var(--color4, #afb1b8)" d="M43.493 10.933h0.957l0.982 4.237h-0.83l-0.194-0.977h-0.854l-0.2 0.977h-0.843l0.982-4.237zM44.311 13.702l-0.333-1.779-0.333 1.779h0.666z"></path>
<path fill="#afb1b8" style="fill: var(--color4, #afb1b8)" d="M46.225 10.933h0.624l1.194 2.417v-2.417h0.74v4.237h-0.593l-1.201-2.523v2.523h-0.765l0.002-4.237z"></path>
<path fill="#afb1b8" style="fill: var(--color4, #afb1b8)" d="M50.515 13.554l-0.993-2.616h0.836l0.606 1.68 0.569-1.68h0.818l-0.98 2.616v1.615h-0.855v-1.615z"></path>
<path fill="#afb1b8" style="fill: var(--color4, #afb1b8)" d="M29.402 17.022v0.222h-0.727v1.722h-0.305v-1.722h-0.731v-0.222h1.763z"></path>
<path fill="#afb1b8" style="fill: var(--color4, #afb1b8)" d="M31.681 18.966h-0.235c-0.024 0.001-0.047-0.005-0.066-0.018-0.018-0.011-0.031-0.027-0.039-0.045l-0.21-0.462h-1.009l-0.21 0.462c-0.006 0.019-0.017 0.037-0.032 0.052-0.019 0.013-0.042 0.019-0.066 0.018h-0.235l0.891-1.943h0.31l0.902 1.935zM30.206 18.244h0.841l-0.356-0.791c-0.026-0.060-0.048-0.121-0.066-0.183-0.012 0.037-0.023 0.072-0.034 0.103l-0.032 0.082-0.353 0.789z"></path>
<path fill="#afb1b8" style="fill: var(--color4, #afb1b8)" d="M33.218 18.775c0.056 0.003 0.112 0.003 0.167 0 0.048-0.004 0.096-0.012 0.143-0.023 0.044-0.009 0.087-0.021 0.128-0.035 0.039-0.014 0.078-0.031 0.119-0.048v-0.437h-0.356c-0.009 0-0.018-0.001-0.026-0.003s-0.016-0.007-0.022-0.012c-0.006-0.004-0.011-0.010-0.014-0.016s-0.005-0.013-0.004-0.019v-0.149h0.691v0.745c-0.056 0.035-0.116 0.066-0.178 0.092-0.064 0.027-0.13 0.049-0.198 0.066-0.073 0.019-0.147 0.032-0.223 0.040-0.086 0.008-0.173 0.012-0.26 0.012-0.154 0.001-0.306-0.023-0.449-0.072-0.133-0.046-0.255-0.115-0.356-0.203-0.099-0.089-0.177-0.193-0.23-0.308-0.056-0.129-0.084-0.265-0.082-0.403-0.002-0.139 0.025-0.276 0.080-0.406 0.051-0.115 0.13-0.22 0.23-0.308 0.102-0.087 0.223-0.156 0.356-0.202 0.153-0.050 0.315-0.074 0.478-0.072 0.083-0 0.166 0.006 0.248 0.017 0.072 0.010 0.144 0.027 0.212 0.049 0.062 0.020 0.122 0.046 0.178 0.077 0.055 0.030 0.106 0.064 0.155 0.102l-0.086 0.12c-0.007 0.011-0.017 0.020-0.029 0.027s-0.026 0.010-0.041 0.010c-0.020-0.001-0.039-0.006-0.055-0.015-0.027-0.012-0.055-0.028-0.087-0.046-0.038-0.020-0.078-0.038-0.119-0.052-0.053-0.018-0.108-0.033-0.164-0.043-0.075-0.012-0.15-0.018-0.226-0.017-0.118-0.001-0.234 0.017-0.344 0.054-0.099 0.034-0.189 0.087-0.262 0.154-0.074 0.070-0.13 0.152-0.166 0.242-0.080 0.21-0.080 0.437 0 0.648 0.039 0.091 0.1 0.175 0.178 0.245 0.073 0.067 0.162 0.119 0.26 0.154 0.113 0.034 0.233 0.047 0.353 0.038v0z"></path>
<path fill="#afb1b8" style="fill: var(--color4, #afb1b8)" d="M36.058 18.744h0.973v0.222h-1.271v-1.943h0.305l-0.007 1.722z"></path>
<path fill="#afb1b8" style="fill: var(--color4, #afb1b8)" d="M38.044 18.965h-0.305v-1.943h0.305v1.943z"></path>
<path fill="#afb1b8" style="fill: var(--color4, #afb1b8)" d="M39.177 17.031c0.018 0.009 0.034 0.021 0.046 0.035l1.303 1.465c-0.002-0.023-0.002-0.046 0-0.069 0-0.021 0-0.043 0-0.063v-1.385h0.266v1.951h-0.153c-0.023 0.002-0.045-0.002-0.066-0.011-0.019-0.010-0.035-0.022-0.048-0.037l-1.301-1.463c0 0.023 0 0.045 0 0.066s0 0.041 0 0.060v1.385h-0.255v-1.943h0.159c0.017 0 0.034 0.003 0.050 0.009v0z"></path>
<path fill="#afb1b8" style="fill: var(--color4, #afb1b8)" d="M43.035 17.022v0.214h-1.080v0.642h0.875v0.206h-0.875v0.663h1.080v0.214h-1.394v-1.939h1.394z"></path>
<path fill="#afb1b8" style="fill: var(--color4, #afb1b8)" d="M11.101 5.022l13.532 3.317v11.624l-13.532-3.316v-11.625zM10.233 4.031v13.181l15.266 3.743v-13.179l-15.266-3.745z"></path>
<path fill="#afb1b8" style="fill: var(--color4, #afb1b8)" d="M18.415 27.074l-15.268-3.746v-13.18l15.268 3.745v13.181z"></path>
<path fill="#afb1b8" style="fill: var(--color4, #afb1b8)" d="M10.486 4.872l13.355 3.276-5.68 4.905-13.357-3.277 5.681-4.903zM10.233 4.031l-7.086 6.117 15.268 3.745 7.084-6.117-15.266-3.745z"></path>
<path fill="#afb1b8" style="fill: var(--color4, #afb1b8)" d="M19.274 26.332l6.225-5.376-6.225-1.528v6.903z"></path>
</symbol>
<symbol id="icon-Logo" viewBox="0 0 56 32">
<path fill="#afb1b8" style="fill: var(--color4, #afb1b8)" d="M19.934 4.153l3.676 3.48-6.824-0.004v16.885h17.836v-6.456l3.672 3.476v-17.382h-18.361zM34.462 17.65l-10.424-9.868h10.424v9.868zM31.225 22.045h-11.616v-11.356h0.821v10.587h10.795v0.769zM22.352 26.763l-0.429 0.884-0.429-0.884h-0.36l0.626 1.178v0.686h0.325v-0.686l0.625-1.178h-0.359zM22.891 28.627l0.151-0.434h0.722l0.152 0.434h0.338l-0.706-1.865h-0.291l-0.704 1.865h0.337zM23.404 27.158l0.27 0.774h-0.541l0.27-0.774zM25.112 27.887c-0.047 0.072-0.070 0.151-0.070 0.237 0 0.157 0.055 0.285 0.165 0.383s0.259 0.146 0.443 0.146 0.343-0.050 0.476-0.15l0.105 0.124h0.361l-0.274-0.324c0.108-0.147 0.161-0.335 0.161-0.565h-0.27c0 0.125-0.026 0.239-0.078 0.342l-0.36-0.425 0.127-0.092c0.090-0.065 0.154-0.13 0.193-0.195s0.059-0.137 0.059-0.215c0-0.118-0.044-0.216-0.131-0.296s-0.197-0.12-0.333-0.12c-0.15 0-0.27 0.043-0.359 0.128s-0.133 0.2-0.133 0.346c0 0.060 0.014 0.122 0.042 0.186s0.080 0.142 0.152 0.233c-0.138 0.099-0.231 0.185-0.278 0.257zM25.954 28.299c-0.091 0.070-0.19 0.105-0.295 0.105-0.093 0-0.167-0.027-0.223-0.081s-0.083-0.124-0.083-0.21c0-0.1 0.051-0.189 0.154-0.266l0.040-0.028 0.407 0.48zM25.619 27.473c-0.088-0.108-0.132-0.198-0.132-0.27 0-0.062 0.018-0.114 0.054-0.155s0.084-0.061 0.145-0.061c0.056 0 0.103 0.017 0.14 0.052s0.055 0.076 0.055 0.124c0 0.073-0.026 0.134-0.079 0.181l-0.040 0.032-0.142 0.097zM28.655 28.486c0.128-0.112 0.202-0.267 0.22-0.466h-0.323c-0.017 0.133-0.058 0.228-0.122 0.286s-0.16 0.086-0.287 0.086c-0.139 0-0.245-0.053-0.318-0.159s-0.108-0.259-0.108-0.461v-0.165c0.002-0.199 0.040-0.35 0.115-0.452s0.184-0.155 0.325-0.155c0.121 0 0.213 0.030 0.275 0.090s0.102 0.155 0.118 0.289h0.323c-0.020-0.204-0.094-0.362-0.219-0.474s-0.291-0.168-0.497-0.168c-0.153 0-0.288 0.036-0.405 0.109s-0.205 0.176-0.268 0.31c-0.062 0.134-0.093 0.289-0.093 0.465v0.174c0.003 0.172 0.035 0.322 0.096 0.452s0.149 0.23 0.261 0.301c0.114 0.070 0.245 0.105 0.393 0.105 0.213 0 0.383-0.055 0.511-0.166zM30.559 28.225c0.063-0.138 0.095-0.299 0.095-0.482v-0.104c-0.001-0.182-0.033-0.341-0.097-0.478s-0.155-0.242-0.273-0.315c-0.117-0.073-0.251-0.11-0.403-0.11s-0.287 0.037-0.405 0.111c-0.117 0.073-0.208 0.18-0.273 0.319s-0.096 0.3-0.096 0.482v0.105c0.001 0.178 0.033 0.336 0.097 0.473s0.156 0.242 0.274 0.316c0.119 0.073 0.254 0.11 0.405 0.11 0.153 0 0.288-0.037 0.405-0.11s0.208-0.18 0.272-0.318zM30.212 27.171c0.079 0.11 0.118 0.269 0.118 0.475v0.097c0 0.21-0.039 0.37-0.117 0.479s-0.187 0.164-0.33 0.164c-0.142 0-0.253-0.056-0.333-0.168s-0.119-0.27-0.119-0.475v-0.108c0.002-0.201 0.042-0.356 0.12-0.465s0.189-0.165 0.329-0.165c0.143 0 0.254 0.055 0.332 0.165z"></path>
</symbol>
<symbol id="icon-smartphone-1" viewBox="0 0 20 32">
<path fill="#757575" style="fill: var(--color3, #757575)" d="M17 0h-14c-1.654 0-3 1.346-3 3v26c0 1.654 1.346 3 3 3h14c1.654 0 3-1.346 3-3v-26c0-1.654-1.346-3-3-3zM3 2h14c0.552 0 1 0.448 1 1v21h-16v-21c0-0.552 0.448-1 1-1zM17 30h-14c-0.552 0-1-0.448-1-1v-3h16v3c0 0.552-0.448 1-1 1z"></path>
<path fill="#757575" style="fill: var(--color3, #757575)" d="M4.707 27.478c0.391 0.365 0.391 0.956 0 1.321s-1.024 0.365-1.414 0c-0.391-0.365-0.391-0.956 0-1.321s1.024-0.365 1.414 0z"></path>
</symbol>
<symbol id="icon-twitter" viewBox="0 0 32 32">
<path fill="#afb1b8" style="fill: var(--color4, #afb1b8)" d="M32 6.078c-1.19 0.522-2.458 0.868-3.78 1.036 1.36-0.812 2.398-2.088 2.886-3.626-1.268 0.756-2.668 1.29-4.16 1.588-1.204-1.282-2.92-2.076-4.792-2.076-3.632 0-6.556 2.948-6.556 6.562 0 0.52 0.044 1.020 0.152 1.496-5.454-0.266-10.28-2.88-13.522-6.862-0.566 0.982-0.898 2.106-0.898 3.316 0 2.272 1.17 4.286 2.914 5.452-1.054-0.020-2.088-0.326-2.964-0.808 0 0.020 0 0.046 0 0.072 0 3.188 2.274 5.836 5.256 6.446-0.534 0.146-1.116 0.216-1.72 0.216-0.42 0-0.844-0.024-1.242-0.112 0.85 2.598 3.262 4.508 6.13 4.57-2.232 1.746-5.066 2.798-8.134 2.798-0.538 0-1.054-0.024-1.57-0.090 2.906 1.874 6.35 2.944 10.064 2.944 12.072 0 18.672-10 18.672-18.668 0-0.29-0.010-0.57-0.024-0.848 1.302-0.924 2.396-2.078 3.288-3.406z"></path>
</symbol>
</defs>
</svg>
